ply
format ascii 1.0
element vertex 382
property float x
property float y
property float z
property float nx
property float ny
property float nz
end_header
-1.52552855014801025 1.66467142105102539 2.97572088241577148 -0.443273276090621948 0.00753217563033103943 -0.896354913711547852
-2.39459824562072754 1.77311122417449951 2.76415085792541504 0.802453577518463135 -0.137677431106567383 -0.580614566802978516
-2.8724822998046875 3.30900073051452637 3.30299258232116699 0.469697654247283936 -0.655117511749267578 -0.591781377792358398
-2.47314023971557617 2.49741792678833008 0.521372675895690918 0.091608785092830658 -0.747998535633087158 0.657347679138183594
-2.29525256156921387 1.14990496635437012 2.44886612892150879 0.680777788162231445 0.579487740993499756 -0.448035240173339844
-1.20625519752502441 1.51434969902038574 2.5792231559753418 -0.84619295597076416 0.0731398984789848328 -0.527833461761474609
-2.4738929271697998 1.39218425750732422 2.43573260307312012 0.8232879638671875 0.128619208931922913 -0.552859961986541748
-2.27383017539978027 1.62916755676269531 2.90156078338623047 0.614255189895629883 0.0414968356490135193 -0.788015604019165039
-1.71591901779174805 1.28077852725982666 2.92177057266235352 -0.17789614200592041 0.540709435939788818 -0.822183847427368164
-1.58868920803070068 1.73652338981628418 1.71567666530609131 -0.870980620384216309 0.152008473873138428 0.467211037874221802
-1.48577320575714111 1.76240682601928711 2.945037841796875 -0.508578598499298096 -0.143900349736213684 -0.848905444145202637
-1.70832180976867676 1.95157063007354736 2.97647380828857422 -0.158589094877243042 -0.423123389482498169 -0.89208531379699707
-1.9083244800567627 2.22470355033874512 2.7611696720123291 0.102894365787506104 -0.806770801544189453 -0.581836462020874023
-2.10694503784179688 2.0128169059753418 2.89807319641113281 0.377892673015594482 -0.481986165046691895 -0.790497660636901855
-1.80020999908447266 2.21278715133666992 2.78020191192626953 -0.0532834641635417938 -0.785045146942138672 -0.617142677307128906
-1.73927855491638184 1.7093048095703125 3.04515910148620605 -0.170607447624206543 -0.0567371658980846405 -0.983704209327697754
-5.49700021743774414 3.70531702041625977 4.58692169189453125 -0.770952463150024414 0.431023091077804565 0.468883156776428223
-2.06808376312255859 1.91210055351257324 2.96750497817993164 0.341889381408691406 -0.355909466743469238 -0.869735598564147949
-2.15565037727355957 1.80591213703155518 2.96257734298706055 0.450889229774475098 -0.205032169818878174 -0.868712127208709717
-0.458132028579711914 5.49700021743774414 5.18993282318115234 0.280688583850860596 0.770191073417663574 0.572729647159576416
-1.96831655502319336 1.98428177833557129 2.96234226226806641 0.178696975111961365 -0.462149918079376221 -0.868610858917236328
-2.40313386917114258 2.03482508659362793 2.18881773948669434 0.762140274047851562 -0.508181452751159668 0.40111580491065979
-1.78407025337219238 2.0075533390045166 2.95947742462158203 -0.0815002694725990295 -0.485382378101348877 -0.870495080947875977
-2.0252385139465332 1.87247967720031738 2.99617600440979004 0.266188532114028931 -0.311401546001434326 -0.912235140800476074
-2.12949109077453613 1.95725047588348389 2.91937947273254395 0.395017445087432861 -0.41968238353729248 -0.817207455635070801
-3.57827472686767578 1.2243112325668335 0.00300000002607703209 -0.531264841556549072 -0.367261022329330444 -0.763463854789733887
-1.9159703254699707 2.09226632118225098 2.90027999877929688 0.104750901460647583 -0.603895187377929688 -0.79015052318572998
-0.970433235168457031 5.49700021743774414 4.63954353332519531 0.281154721975326538 0.405950099229812622 0.869572639465332031
-1.79880034923553467 1.73230564594268799 3.04987454414367676 -0.0576238557696342468 -0.0938495546579360962 -0.993917346000671387
-5.49700021743774414 2.89417648315429688 5.00665569305419922 -0.467201799154281616 0.860663115978240967 -0.202438756823539734
-1.84229373931884766 1.71642065048217773 3.05294156074523926 -0.0248049013316631317 -0.0983638614416122437 -0.994841337203979492
-2.34537005424499512 1.24935483932495117 2.59060955047607422 0.720161080360412598 0.614542722702026367 -0.322033107280731201
-2.17841172218322754 1.41534531116485596 2.9125678539276123 0.488556444644927979 0.371092855930328369 -0.789685189723968506
-2.30198788642883301 2.13201141357421875 2.58260226249694824 0.540809392929077148 -0.764389872550964355 -0.351046085357666016
-3.81798720359802246 -0.469875812530517578 0.821078479290008545 -0.578478455543518066 -0.355379432439804077 0.734212577342987061
-2.05599713325500488 1.1353987455368042 2.75052237510681152 0.313303589820861816 0.656749844551086426 -0.685945034027099609
-2.23266386985778809 1.26082289218902588 2.76434206962585449 0.565904974937438965 0.585852324962615967 -0.580110907554626465
-2.2265479564666748 1.28462529182434082 2.79274106025695801 0.573894679546356201 0.536812901496887207 -0.618447184562683105
-2.07271218299865723 2.01014900207519531 2.91538858413696289 0.329672813415527344 -0.521229863166809082 -0.787169098854064941
-2.23769903182983398 1.42548966407775879 2.87650632858276367 0.548630595207214355 0.344052612781524658 -0.761992335319519043
-3.34557008743286133 5.49699974060058594 1.52331626415252686 -0.545148968696594238 0.83752816915512085 0.0368669256567955017
-0.00300000002607703209 1.80809891223907471 2.19204044342041016 0.948044776916503906 0.0132650183513760567 0.317860305309295654
-0.00300000002607703209 0.277483224868774414 3.32427859306335449 0.385357111692428589 -0.403279334306716919 -0.829979300498962402
-1.52576196193695068 1.52972114086151123 2.96054172515869141 -0.199441373348236084 0.0758525505661964417 -0.976969540119171143
-1.47606194019317627 1.50411856174468994 1.79219961166381836 -0.499731928110122681 0.103408440947532654 0.859985232353210449
-1.48088788986206055 2.06594586372375488 2.79156231880187988 -0.50859677791595459 -0.596449017524719238 -0.620949149131774902
-1.68262672424316406 1.29062771797180176 2.91991257667541504 -0.229392409324645996 0.521860182285308838 -0.821608841419219971
-0.00300000002607703209 2.33118772506713867 1.44338607788085938 0.527510285377502441 0.549643576145172119 0.647784531116485596
-1.83726823329925537 1.38062894344329834 2.99207949638366699 -0.0054875505156815052 0.398156464099884033 -0.91730111837387085
-2.49712538719177246 1.44144546985626221 2.33374595642089844 0.842941522598266602 -0.266901075839996338 -0.467133224010467529
-1.85354256629943848 1.78951942920684814 3.04320669174194336 0.00923425424844026566 -0.191590026021003723 -0.981431663036346436
-2.17496156692504883 1.44720995426177979 2.92797446250915527 0.48715481162071228 0.302490502595901489 -0.819255590438842773
-2.25214266777038574 1.13859844207763672 2.17448544502258301 0.657993316650390625 0.513797223567962646 0.550506412982940674
-2.52650976181030273 1.3015294075012207 1.65299618244171143 -0.651227116584777832 -0.295077681541442871 -0.699165880680084229
-1.55201709270477295 1.82144558429718018 2.96895694732666016 -0.422409534454345703 -0.246442198753356934 -0.872259378433227539
-1.91833353042602539 2.02689003944396973 2.94616794586181641 0.121329627931118011 -0.520337402820587158 -0.845297634601593018
-2.21601176261901855 2.04406023025512695 1.91315865516662598 0.529102444648742676 -0.547548294067382812 0.648260354995727539
-0.00300000002607703209 1.49121308326721191 1.75981223583221436 0.843122661113739014 -0.156358033418655396 -0.514486789703369141
-4.11255502700805664 2.50890159606933594 3.12320947647094727 -0.896763920783996582 0.335796356201171875 0.288192898035049438
-1.98372256755828857 2.34042453765869141 2.31322765350341797 0.333563387393951416 -0.840830445289611816 -0.426309257745742798
-2.39200019836425781 1.72363507747650146 2.77776575088500977 0.668581843376159668 -0.1548357754945755 -0.727340579032897949
-1.34950387477874756 1.62483775615692139 2.84257960319519043 -0.427492380142211914 -0.0630345642566680908 -0.901818752288818359
-3.55035257339477539 2.76276755332946777 5.49700021743774414 -0.00898247957229614258 -0.228915035724639893 0.973405122756958008
-1.67876040935516357 2.17560172080993652 2.79683470726013184 -0.240057945251464844 -0.74876636266708374 -0.617835879325866699
-0.00300000002607703209 4.56734895706176758 4.76230144500732422 0.909280896186828613 0.322035849094390869 0.263631224632263184
-1.92279505729675293 2.0477759838104248 1.78447723388671875 0.107993721961975098 -0.606730639934539795 0.787537455558776855
-1.58780407905578613 1.92613232135772705 2.94853591918945312 -0.361324876546859741 -0.387315630912780762 -0.848192751407623291
-5.49700021743774414 1.36315441131591797 0.311181068420410156 -0.871731221675872803 -0.0629120171070098877 -0.485929131507873535
-1.91238307952880859 5.49700021743774414 4.97167587280273438 -0.0134688131511211395 0.828952550888061523 0.559157252311706543
-2.35999250411987305 1.21201241016387939 2.28248214721679688 0.850635230541229248 0.473955839872360229 -0.227564573287963867
-3.67780637741088867 -0.40351143479347229 0.754313111305236816 0.904471755027770996 0.424227535724639893 -0.0442919619381427765
-3.54857182502746582 5.49700021743774414 0.892502784729003906 0.191185116767883301 0.66189497709274292 -0.724805772304534912
-2.90770816802978516 0.372326850891113281 5.49700021743774414 -0.298129081726074219 -0.364214777946472168 0.882307648658752441
-2.07222747802734375 1.96980011463165283 2.93888545036315918 0.329590380191802979 -0.417693614959716797 -0.846700787544250488
-2.3377842903137207 1.85570228099822998 1.91128206253051758 0.660213232040405273 -0.308481991291046143 0.684804558753967285
-2.3679959774017334 1.77440154552459717 1.9183504581451416 0.668220281600952148 -0.3320445716381073 0.665753781795501709
-1.7754673957824707 1.23280453681945801 2.89667892456054688 -0.103082694113254547 0.599951624870300293 -0.793367564678192139
-1.50008594989776611 2.20785164833068848 2.61445474624633789 -0.335312873125076294 -0.72061002254486084 -0.606866180896759033
-1.08066999912261963 2.62215852737426758 0.00300000002607703209 -0.180506527423858643 -0.238735467195510864 -0.954160749912261963
-1.68759644031524658 1.46958446502685547 3.00658512115478516 -0.216409295797348022 0.281216055154800415 -0.934924960136413574
-1.93750846385955811 1.81117057800292969 1.68454849720001221 0.201065614819526672 -0.375516831874847412 0.904742956161499023
-1.57462131977081299 1.16385889053344727 2.75303769111633301 -0.153560250997543335 0.493628829717636108 -0.856008052825927734
-2.38210296630859375 2.00023055076599121 2.6347346305847168 0.596231937408447266 -0.642431855201721191 -0.481444597244262695
-1.85268163681030273 2.29271602630615234 2.64940500259399414 0.025979112833738327 -0.91122734546661377 -0.411083817481994629
-0.00300000002607703209 3.22042346000671387 1.82221949100494385 0.98960644006729126 0.130931749939918518 -0.0594644211232662201
-1.44192099571228027 1.67791330814361572 1.79263210296630859 -0.559913933277130127 -0.138882756233215332 0.816828012466430664
-1.32187318801879883 1.96177291870117188 2.01398944854736328 -0.751604914665222168 -0.630105137825012207 0.195083767175674438
-2.2872767448425293 1.65499567985534668 1.82490909099578857 0.152180060744285583 0.178895950317382812 0.972027480602264404
-2.21515464782714844 1.62840771675109863 1.77281522750854492 0.628725349903106689 0.0356657207012176514 0.776809155941009521
-2.52994751930236816 1.73253679275512695 2.40685248374938965 0.836539030075073242 -0.196245923638343811 -0.511556506156921387
-2.05333518981933594 1.10278403759002686 2.70293068885803223 0.317976027727127075 0.805876851081848145 -0.499453455209732056
-2.33537101745605469 2.16876721382141113 5.49700021743774414 -0.156212270259857178 0.158936560153961182 0.974852442741394043
-2.11471176147460938 1.64044189453125 2.99772977828979492 0.403202593326568604 0.0280538983643054962 -0.914680659770965576
-1.58011901378631592 2.08934998512268066 2.83889412879943848 -0.180121809244155884 -0.491932839155197144 -0.851797044277191162
-2.36970114707946777 2.10103940963745117 2.46469497680664062 0.725184202194213867 -0.626652896404266357 -0.285331279039382935
-1.92772436141967773 2.2633509635925293 2.69615864753723145 0.110005810856819153 -0.860264182090759277 -0.497839689254760742
-3.60443592071533203 1.50776171684265137 0.00300000002607703209 0.750365614891052246 -0.368338584899902344 -0.548888146877288818
-1.1550910472869873 1.712333083152771 2.32637882232666016 -0.994960784912109375 -0.0880666822195053101 0.0479308366775512695
-2.05457377433776855 1.92433106899261475 2.9672238826751709 0.30473703145980835 -0.387795031070709229 -0.869914054870605469
-2.46345734596252441 1.60968220233917236 2.66118812561035156 0.886850953102111816 0.0623260550200939178 -0.457832813262939453
-1.29697930812835693 1.57707607746124268 2.7743525505065918 -0.637894988059997559 0.00356462365016341209 -0.770115137100219727
-1.56711924076080322 2.23642206192016602 2.63329458236694336 -0.404845118522644043 -0.816511034965515137 -0.411594629287719727
-1.52217984199523926 4.17496395111083984 5.49700021743774414 0.0832764804363250732 0.626995563507080078 0.77455902099609375
-1.49478983879089355 1.86429119110107422 2.92411422729492188 -0.494244873523712158 -0.286739975214004517 -0.820671796798706055
-5.49700021743774414 0.683172464370727539 1.64787483215332031 -0.929279863834381104 -0.283109903335571289 -0.237250149250030518
-1.41551351547241211 1.99680793285369873 1.92649507522583008 -0.6172676682472229 -0.508895635604858398 0.600004851818084717
-3.69990086555480957 3.61793661117553711 3.34088945388793945 0.50229942798614502 0.453918308019638062 0.735971152782440186
-1.38016068935394287 1.61509931087493896 2.87170696258544922 -0.678183794021606445 0.0834190100431442261 -0.730142474174499512
-1.76588857173919678 2.10535454750061035 2.88866305351257324 -0.105175614356994629 -0.644340753555297852 -0.757471442222595215
-1.96625280380249023 1.07724988460540771 2.70229911804199219 0.163826584815979004 0.576496303081512451 -0.800508022308349609
-2.04219150543212891 1.00322449207305908 2.36721611022949219 0.356251507997512817 0.86444699764251709 -0.354705929756164551
-2.1985170841217041 1.15264987945556641 2.05784893035888672 0.525656461715698242 0.704468011856079102 0.476875424385070801
-1.3831479549407959 1.25754773616790771 2.67509126663208008 -0.471740961074829102 0.362895965576171875 -0.803596317768096924
-1.54577553272247314 1.92525506019592285 2.92856335639953613 -0.429201960563659668 -0.377077758312225342 -0.820730209350585938
-2.32465291023254395 1.83995199203491211 2.8261265754699707 0.672229349613189697 -0.259478896856307983 -0.693381905555725098
-0.00300000002607703209 4.45080471038818359 2.05552959442138672 0.37772861123085022 0.83405768871307373 0.402080625295639038
-2.24610781669616699 1.67709672451019287 2.92366766929626465 0.552307248115539551 -0.0377896241843700409 -0.832783699035644531
-1.9082028865814209 2.09286713600158691 2.90085816383361816 0.0969473123550415039 -0.619907855987548828 -0.778662681579589844
-2.41314435005187988 1.96515500545501709 2.61175727844238281 0.819773375988006592 -0.437287330627441406 -0.369799256324768066
-3.16334414482116699 2.80335569381713867 2.71209859848022461 -0.739533662796020508 0.645234942436218262 0.191732823848724365
-4.07939291000366211 1.8268660306930542 5.49700021743774414 -0.585057199001312256 0.0413931868970394135 0.809935331344604492
-2.18324589729309082 1.46215903759002686 2.92866992950439453 0.500161945819854736 0.276582598686218262 -0.820573091506958008
-2.32416749000549316 2.83155941963195801 0.00300000002607703209 0.00218663993291556835 0.705962240695953369 -0.708246052265167236
-2.08023929595947266 1.83078539371490479 2.99029183387756348 0.336067557334899902 -0.233718693256378174 -0.912378311157226562
-4.29591798782348633 4.49869441986083984 5.49700021743774414 -0.501856386661529541 0.578632950782775879 0.642902851104736328
-1.97302460670471191 1.703643798828125 3.04126667976379395 0.186334013938903809 -0.0492418929934501648 -0.981251716613769531
-2.0984342098236084 1.5636143684387207 2.99677896499633789 0.305593401193618774 0.0630273148417472839 -0.950073778629302979
-2.40827131271362305 1.59711837768554688 2.75354456901550293 0.809575498104095459 0.0946546196937561035 -0.579334139823913574
-2.23700594902038574 1.75425124168395996 2.92318058013916016 0.568289279937744141 -0.142147719860076904 -0.810457468032836914
-1.56060552597045898 1.5611572265625 2.98409819602966309 -0.414475858211517334 0.157131791114807129 -0.896392464637756348
-1.73465573787689209 2.10234975814819336 5.49700021743774414 0.0304150208830833435 0.143572255969047546 0.989172697067260742
-1.78365027904510498 1.74161148071289062 3.04781436920166016 -0.0466762445867061615 -0.142043381929397583 -0.988759279251098633
-2.3234865665435791 1.48912191390991211 2.82678031921386719 0.673090517520904541 0.257631003856658936 -0.693235397338867188
-3.27136087417602539 5.49700021743774414 2.00619220733642578 -0.119643285870552063 0.649587869644165039 0.750813663005828857
-1.99314737319946289 2.09650683403015137 2.88051700592041016 0.204733997583389282 -0.616211414337158203 -0.760504782199859619
-2.00250601768493652 1.86361801624298096 3.00513076782226562 0.22390022873878479 -0.285550147294998169 -0.931842148303985596
-2.09796500205993652 1.13161122798919678 2.71901488304138184 0.382775723934173584 0.749143600463867188 -0.540616869926452637
-1.32663702964782715 1.85834717750549316 2.7766871452331543 -0.509286999702453613 -0.229178816080093384 -0.829520225524902344
-2.05026006698608398 1.81922745704650879 3.00378632545471191 0.285394966602325439 -0.220769822597503662 -0.932636260986328125
-2.27396750450134277 2.18375110626220703 2.20365142822265625 0.650892078876495361 -0.726078391075134277 0.221697360277175903
-1.71634459495544434 2.31448531150817871 2.55960273742675781 -0.0112103307619690895 -0.747272372245788574 -0.664423346519470215
-4.79953765869140625 0.640352249145507812 5.49700021743774414 -0.666055798530578613 -0.234380960464477539 0.708121657371520996
-2.12401485443115234 1.67959070205688477 2.99392867088317871 0.405189216136932373 -0.0313685387372970581 -0.913694500923156738
-2.46462583541870117 1.91418004035949707 2.18345379829406738 0.81237483024597168 0.212763965129852295 0.54293525218963623
-2.44588518142700195 1.53935778141021729 5.49700021743774414 -0.191127508878707886 -0.0389226190745830536 0.980793595314025879
-2.03719758987426758 1.13854610919952393 1.95216786861419678 0.305622488260269165 0.755243122577667236 0.579829931259155273
-1.25132358074188232 1.89388167858123779 2.63226318359375 -0.695770978927612305 -0.296358048915863037 -0.654274106025695801
-2.15110278129577637 2.02001571655273438 2.86875820159912109 0.456326484680175781 -0.526014149188995361 -0.717687487602233887
-1.92321968078613281 1.25821793079376221 2.9148705005645752 0.121414206922054291 0.577597737312316895 -0.807241916656494141
-2.04516243934631348 1.43508803844451904 2.98203825950622559 0.299050420522689819 0.334363698959350586 -0.893739223480224609
-2.02079057693481445 1.49006819725036621 3.00712800025939941 0.264052629470825195 0.24080994725227356 -0.933963000774383545
-2.17488288879394531 1.97530138492584229 2.8829350471496582 0.470599591732025146 -0.451882332563400269 -0.757851123809814453
-0.381419181823730469 3.63480138778686523 0.00300047686323523521 0.608127415180206299 0.185111522674560547 -0.771955132484436035
-2.20628523826599121 1.42827296257019043 2.90039467811584473 0.520879685878753662 0.325065851211547852 -0.789314031600952148
-5.01344490051269531 2.25886631011962891 5.49700021743774414 -0.431980252265930176 -0.640714883804321289 0.634726285934448242
-2.05294895172119141 1.24513792991638184 2.86890935897827148 0.312967598438262939 0.61083519458770752 -0.727276861667633057
-1.7540888786315918 2.30348968505859375 2.60893011093139648 -0.114147074520587921 -0.935099005699157715 -0.335499942302703857
-1.58026123046875 1.92198288440704346 2.94698643684387207 -0.38084721565246582 -0.369480401277542114 -0.847608208656311035
-2.0353538990020752 1.90159523487091064 2.9828183650970459 0.280949115753173828 -0.356666773557662964 -0.890986204147338867
-0.00299976160749793053 -0.829327106475830078 2.45661139488220215 0.583759903907775879 -0.803002238273620605 -0.120050311088562012
-0.00300000002607703209 1.78348815441131592 1.84633064270019531 0.862491250038146973 0.0616838261485099792 -0.502298951148986816
-2.3882899284362793 1.27610290050506592 2.53174352645874023 0.700693428516387939 0.259077489376068115 -0.66476130485534668
-2.45215272903442383 1.98574471473693848 2.28778338432312012 0.887247681617736816 -0.446254074573516846 -0.116828151047229767
-1.70644140243530273 2.05144190788269043 2.91842365264892578 -0.174603730440139771 -0.547764599323272705 -0.818209946155548096
-1.73015546798706055 1.89711654186248779 3.00349259376525879 -0.158887952566146851 -0.320833206176757812 -0.933713436126708984
-2.06830811500549316 1.79864501953125 3.00238943099975586 0.314042598009109497 -0.17963641881942749 -0.932259678840637207
-2.36513113975524902 2.03134536743164062 2.62784266471862793 0.74465477466583252 -0.525632023811340332 -0.411339640617370605
-1.85198795795440674 2.18927860260009766 1.90510070323944092 0.0204993188381195068 -0.769130349159240723 0.638763070106506348
-1.50672805309295654 1.47776520252227783 2.93556118011474609 -0.324660360813140869 0.119773313403129578 -0.93821638822555542
-2.29754781723022461 1.56869065761566162 2.87404370307922363 0.637712359428405762 0.136590629816055298 -0.758067309856414795
-2.24870777130126953 1.79851710796356201 2.90566277503967285 0.589207947254180908 -0.206101596355438232 -0.78125298023223877
-1.80860710144042969 1.9595407247543335 2.98675012588500977 -0.0543294325470924377 -0.444727838039398193 -0.894016504287719727
-2.01359105110168457 1.35033845901489258 2.9535679817199707 0.275763243436813354 0.406976521015167236 -0.870818495750427246
-2.518157958984375 1.66060423851013184 2.51010727882385254 0.754689037799835205 -0.182277858257293701 -0.630253314971923828
-1.9369128942489624 1.10978662967681885 2.76125669479370117 0.19001355767250061 0.650521039962768555 -0.73533475399017334
-1.87574028968811035 1.26975631713867188 2.92774128913879395 0.0441781207919120789 0.568478822708129883 -0.821510910987854004
-2.06240153312683105 2.09073042869567871 1.85641944408416748 0.317532718181610107 -0.626109600067138672 0.712151527404785156
-1.60570120811462402 2.03708052635192871 1.82318711280822754 -0.336349427700042725 -0.577815353870391846 0.743638753890991211
-2.28492045402526855 1.95846796035766602 2.80511307716369629 0.637236118316650391 -0.40147361159324646 -0.657836675643920898
-2.3548743724822998 1.98270809650421143 2.70024323463439941 0.730858564376831055 -0.466785907745361328 -0.497952520847320557
-1.88274860382080078 0.993616402149200439 2.19916319847106934 0.0924928635358810425 0.967394530773162842 0.235781759023666382
-2.29205870628356934 1.18783736228942871 2.58022141456604004 0.656025707721710205 0.682514190673828125 -0.322187274694442749
-1.7203139066696167 1.29887330532073975 2.93493151664733887 -0.174404382705688477 0.543459296226501465 -0.82111823558807373
-2.48587274551391602 1.41119837760925293 2.33060812950134277 0.908790826797485352 0.390257060527801514 0.147644087672233582
-2.38782644271850586 1.36879897117614746 2.66642427444458008 0.673384904861450195 0.101774021983146667 -0.732253193855285645
-0.961559772491455078 0.979660987854003906 5.49700021743774414 0.26789557933807373 -0.206600040197372437 0.941036224365234375
-2.45172572135925293 1.7945554256439209 2.66231751441955566 0.868242502212524414 -0.194254964590072632 -0.456530451774597168
-2.30220174789428711 2.15243744850158691 2.18397831916809082 0.627597212791442871 -0.725280106067657471 0.283002644777297974
-2.14428162574768066 1.56874990463256836 2.97707128524780273 0.424914032220840454 0.139409452676773071 -0.894434511661529541
-1.84010684490203857 2.3044588565826416 2.62281036376953125 0.0528058335185050964 -0.673802673816680908 -0.737022042274475098
-1.97262156009674072 5.49700021743774414 4.89266109466552734 0.651355147361755371 0.579247593879699707 0.490110874176025391
-3.62152719497680664 5.49700021743774414 2.70569705963134766 0.0328310728073120117 0.859065055847167969 -0.510812163352966309
-2.17323613166809082 1.05770409107208252 2.36562538146972656 0.573697328567504883 0.732493996620178223 -0.366502344608306885
-2.50542092323303223 1.47731626033782959 2.42680644989013672 0.793508172035217285 0.131123572587966919 -0.594265460968017578
-0.00300000002607703209 2.30688667297363281 4.61719417572021484 0.68903958797454834 0.205599308013916016 0.694948673248291016
-2.71306848526000977 1.24000465869903564 5.49700021743774414 -0.267386019229888916 -0.152185529470443726 0.951495766639709473
-2.2491462230682373 2.03471708297729492 1.9351116418838501 0.578286349773406982 -0.536235630512237549 0.614846467971801758
-3.6504967212677002 5.49700021743774414 0.0638754367828369141 0.900866389274597168 0.422366797924041748 0.100229807198047638
-1.99605917930603027 1.88228404521942139 1.71578133106231689 0.283302992582321167 -0.355621308088302612 0.890658676624298096
-2.24729490280151367 1.33553493022918701 2.81523799896240234 0.495102286338806152 0.174360617995262146 -0.851159334182739258
-5.49700021743774414 0.620664596557617188 3.96410369873046875 -0.888881683349609375 -0.251968234777450562 0.382624119520187378
-2.12085652351379395 1.99750185012817383 2.90070581436157227 0.398598164319992065 -0.464385926723480225 -0.790863633155822754
-1.39335155487060547 1.74111199378967285 1.83641386032104492 -0.670370817184448242 -0.143175557255744934 0.72808229923248291
-1.99926698207855225 1.8561931848526001 3.00818490982055664 0.222879901528358459 -0.281465619802474976 -0.933328211307525635
-2.35059380531311035 1.2487795352935791 2.5774078369140625 0.607626736164093018 0.292839884757995605 -0.738264560699462891
-1.90324580669403076 1.23054087162017822 2.89591622352600098 0.082970835268497467 0.635883688926696777 -0.767312049865722656
-2.89627385139465332 2.53046798706054688 0.00299952318891882896 -0.0517090186476707458 0.150190010666847229 -0.987303972244262695
-2.18784999847412109 1.95978820323944092 2.88352465629577637 0.492531239986419678 -0.428397208452224731 -0.757554531097412109
-2.66999435424804688 2.95639729499816895 3.01938056945800781 -0.495711952447891235 0.780013859272003174 0.381900757551193237
-1.67271506786346436 1.03769767284393311 2.59348917007446289 -0.244806200265884399 0.896608233451843262 -0.369003772735595703
-4.0264434814453125 5.47670650482177734 0.00300000002607703209 0.746918737888336182 -0.02947952039539814 -0.664261519908905029
-1.70926511287689209 2.13575482368469238 2.84949684143066406 -0.185027152299880981 -0.697368621826171875 -0.692417502403259277
-2.10202980041503906 1.75986433029174805 2.99638986587524414 0.377501040697097778 -0.150347799062728882 -0.913722395896911621
-1.48679125308990479 2.12387633323669434 2.73429417610168457 -0.364471107721328735 -0.643097877502441406 -0.67348790168762207
-2.35507988929748535 1.71170485019683838 1.89245283603668213 0.752739429473876953 -0.063989199697971344 0.655201315879821777
-2.15336012840270996 2.24718117713928223 2.14920926094055176 0.446162283420562744 -0.859435379505157471 0.249619662761688232
-5.49700021743774414 4.36768913269042969 4.20846080780029297 -0.518532335758209229 0.750737607479095459 0.409288793802261353
-2.18641567230224609 2.16617083549499512 2.69095492362976074 0.502016544342041016 -0.708106875419616699 -0.496552228927612305
-3.39155483245849609 2.73256254196166992 2.65458869934082031 -0.697244942188262939 0.405151695013046265 -0.591355741024017334
-1.33511579036712646 1.4521636962890625 2.77753281593322754 -0.419929385185241699 0.215469002723693848 -0.881607890129089355
-1.6885303258895874 2.33427810668945312 2.434051513671875 -0.19869530200958252 -0.971861124038696289 -0.126515403389930725
-1.51086997985839844 1.73304176330566406 2.96393084526062012 -0.473760455846786499 -0.10899902880191803 -0.873882293701171875
-2.23500823974609375 2.16585516929626465 2.08489823341369629 0.598658561706542969 -0.751133441925048828 0.278220236301422119
-2.26157593727111816 1.28046011924743652 2.75453591346740723 0.594149768352508545 0.557389616966247559 -0.579916238784790039
-1.33238577842712402 2.06073808670043945 2.60355305671691895 -0.522048592567443848 -0.605683505535125732 -0.600510478019714355
-0.00300023844465613365 4.1019129753112793 4.30022716522216797 0.997782349586486816 0.0645834803581237793 0.0161075592041015625
-0.00299952318891882896 -0.90306854248046875 5.079803466796875 0.469141572713851929 -0.75436556339263916 0.459171921014785767
-1.28313601016998291 1.90627598762512207 2.68470191955566406 -0.629109501838684082 -0.323011100292205811 -0.707025587558746338
-2.48457455635070801 1.68275189399719238 2.61805176734924316 0.702544808387756348 -0.128502815961837769 -0.699941277503967285
-2.39738607406616211 2.71743083000183105 1.19824075698852539 -0.591303348541259766 -0.470824331045150757 0.654740214347839355
-2.00785446166992188 1.46428942680358887 5.49700021743774414 -0.059899553656578064 -0.0679923146963119507 0.995886385440826416
-2.34375691413879395 1.34692800045013428 2.7162022590637207 0.713787436485290527 0.44502943754196167 -0.540792286396026611
-2.10813570022583008 2.1605527400970459 1.95268189907073975 0.371875226497650146 -0.745650768280029297 0.552913904190063477
-2.25777912139892578 5.49700021743774414 0.577455043792724609 0.149712413549423218 0.958667218685150146 0.24195726215839386
-2.01530742645263672 1.57435131072998047 3.02613115310668945 0.253685653209686279 0.114471495151519775 -0.960489392280578613
-2.30708742141723633 1.24486780166625977 2.06214165687561035 0.656693577766418457 0.623394370079040527 0.424420654773712158
-1.7863166332244873 2.31104016304016113 2.59888648986816406 -0.0181344635784626007 -0.850247621536254883 -0.526070535182952881
-2.06783008575439453 1.30390727519989014 2.90660429000854492 0.3286171555519104 0.513115227222442627 -0.792920827865600586
-1.73426997661590576 1.42670202255249023 3.00187516212463379 -0.140891149640083313 0.324289619922637939 -0.935406804084777832
-2.32271552085876465 1.34814155101776123 2.74543070793151855 0.690644919872283936 0.430919051170349121 -0.580791234970092773
-2.30033397674560547 2.17497563362121582 2.45576643943786621 0.632370412349700928 -0.736580610275268555 -0.239909783005714417
-5.49700021743774414 2.69127178192138672 3.73058557510375977 -0.908062636852264404 0.251306474208831787 0.335063815116882324
-2.2298123836517334 1.9764411449432373 2.84275197982788086 0.571255326271057129 -0.44466012716293335 -0.689887523651123047
-1.74428474903106689 2.0744931697845459 2.90967440605163574 -0.130923345685005188 -0.596013128757476807 -0.792229413986206055
-5.49700021743774414 1.90857422351837158 2.73312473297119141 -0.993556678295135498 0.060911715030670166 0.0955745130777359009
-1.67002427577972412 1.31876778602600098 2.9342195987701416 -0.256466507911682129 0.507620453834533691 -0.822524428367614746
-2.21927022933959961 1.72576558589935303 2.93913054466247559 0.42182275652885437 -0.158150911331176758 -0.892778754234313965
-3.29012298583984375 0.481807231903076172 5.49700021743774414 -0.393779963254928589 -0.326330333948135376 0.859329104423522949
-2.12229299545288086 1.04586076736450195 2.48699259757995605 0.482699573040008545 0.759303867816925049 -0.436415940523147583
-2.41013669967651367 0.729701995849609375 5.49700021743774414 -0.169534444808959961 -0.280456483364105225 0.944776594638824463
-1.88358056545257568 2.03051877021789551 2.94730734825134277 0.0693977475166320801 -0.528970062732696533 -0.845798254013061523
-0.00300000002607703209 -0.578772068023681641 0.249898433685302734 0.472313642501831055 -0.518011689186096191 -0.713150620460510254
-1.80094015598297119 1.18840467929840088 2.8598787784576416 -0.0478400066494941711 0.681645750999450684 -0.730116605758666992
-1.72723031044006348 1.94048547744750977 2.98549461364746094 -0.178208768367767334 -0.411437839269638062 -0.893845915794372559
-0.00300000002607703209 1.56985187530517578 1.186698317527771 0.723614394664764404 -0.32272908091545105 -0.610104978084564209
-2.2094123363494873 2.24431681632995605 2.45028567314147949 0.533111214637756348 -0.835611879825592041 -0.13245806097984314
-1.83088910579681396 2.01575827598571777 2.95762872695922852 -0.00877043511718511581 -0.493614375591278076 -0.869636595249176025
-2.52977585792541504 1.74477612972259521 2.38186883926391602 0.825186967849731445 -0.238150179386138916 -0.512202084064483643
-2.07708406448364258 1.25329649448394775 2.86494994163513184 0.341754913330078125 0.592531979084014893 -0.729458332061767578
-1.76743030548095703 2.14301967620849609 1.86166763305664062 -0.056360345333814621 -0.603781342506408691 0.795155167579650879
-2.1280219554901123 2.07174086570739746 2.84249019622802734 0.41533738374710083 -0.590905070304870605 -0.691611170768737793
-2.0204002857208252 2.08520412445068359 2.8812563419342041 0.264686256647109985 -0.596157312393188477 -0.757982611656188965
-5.49700021743774414 0.992874383926391602 2.72792696952819824 -0.979583978652954102 -0.177695944905281067 0.0940175801515579224
-2.12691664695739746 1.792641282081604 2.97965097427368164 0.326990336179733276 -0.238010823726654053 -0.91456449031829834
-1.68433654308319092 2.33716464042663574 2.37968659400939941 -0.1472511887550354 -0.871178984642028809 -0.468363463878631592
-0.00300000002607703209 0.669060945510864258 4.58356475830078125 0.491445690393447876 -0.676046133041381836 -0.549038052558898926
-1.57230103015899658 2.00006842613220215 2.90190911293029785 -0.372438192367553711 -0.488187253475189209 -0.789280056953430176
-2.15722179412841797 2.15997719764709473 2.72725248336791992 0.452701598405838013 -0.710771620273590088 -0.53839111328125
-2.05423235893249512 1.23663210868835449 2.86107468605041504 0.314120084047317505 0.610699832439422607 -0.72689366340637207
-2.20729374885559082 1.62728548049926758 2.94862747192382812 0.480617135763168335 -0.120413750410079956 -0.868623971939086914
-3.64150118827819824 3.81760621070861816 3.30299234390258789 -0.0963865518569946289 0.823028445243835449 -0.559762239456176758
-2.13798689842224121 2.00544071197509766 1.83030283451080322 0.427245765924453735 -0.488045632839202881 0.761099576950073242
-1.64006555080413818 1.98768746852874756 1.77818882465362549 -0.299640834331512451 -0.502376675605773926 0.811069130897521973
-2.32218313217163086 1.55803859233856201 2.84864449501037598 0.705786526203155518 0.154855906963348389 -0.691292345523834229
-1.83612358570098877 2.35552716255187988 2.39087772369384766 -0.0203778091818094254 -0.99911808967590332 -0.0367139428853988647
-1.27476322650909424 2.00803995132446289 2.1666560173034668 -0.80866318941116333 -0.588112235069274902 0.0137081146240234375
-2.06516170501708984 2.16525483131408691 2.78337836265563965 0.318340897560119629 -0.719264388084411621 -0.617509365081787109
-5.49699974060058594 3.33164834976196289 4.82980537414550781 -0.828973352909088135 -0.520883619785308838 -0.203674837946891785
-1.71895515918731689 1.16514706611633301 2.82181954383850098 -0.159358963370323181 0.735068202018737793 -0.65899890661239624
-2.44318890571594238 1.85146248340606689 2.64942121505737305 0.864310383796691895 -0.290768027305603027 -0.410391718149185181
-2.40042400360107422 1.98474621772766113 2.10062336921691895 0.8042449951171875 -0.462452709674835205 0.373266041278839111
-2.90211200714111328 3.79705095291137695 2.95738697052001953 -0.600426077842712402 -0.621649861335754395 0.503030776977539062
-0.551957130432128906 5.49700021743774414 5.08457136154174805 0.269452542066574097 0.788735806941986084 0.55253136157989502
-2.20586156845092773 1.86638200283050537 2.91516971588134766 0.53438723087310791 -0.305097818374633789 -0.788254737854003906
-3.70796513557434082 4.06757497787475586 3.91664505004882812 0.158365517854690552 -0.87884521484375 -0.450057148933410645
-2.45999407768249512 1.60777771472930908 2.66781520843505859 0.888333320617675781 0.0602898821234703064 -0.455224066972732544
-1.57912266254425049 2.15975499153137207 1.95193350315093994 -0.362215042114257812 -0.731228947639465332 0.578017771244049072
-1.44370937347412109 1.71681308746337891 2.92298102378845215 -0.564796090126037598 -0.0752104520797729492 -0.821796119213104248
-2.20609664916992188 1.9976348876953125 1.86938881874084473 0.530274868011474609 -0.544803857803344727 0.649613261222839355
-0.00300071528181433678 0.791483879089355469 1.9964975118637085 0.552130281925201416 -0.798943042755126953 -0.238416045904159546
-1.69161725044250488 2.28772711753845215 2.09790349006652832 0.410375475883483887 -0.845150232315063477 -0.342509865760803223
-1.06816959381103516 2.32076930999755859 0.90468895435333252 -0.392388463020324707 -0.86124187707901001 0.322945475578308105
-1.57442212104797363 1.96361732482910156 1.79252159595489502 -0.180586859583854675 -0.677046895027160645 0.713439464569091797
-2.0857236385345459 2.08025503158569336 1.85833287239074707 0.337586879730224609 -0.614129543304443359 0.713358223438262939
-1.86488187313079834 1.17636227607727051 2.84971952438354492 0.0188200678676366806 0.716626465320587158 -0.697203159332275391
-2.20398783683776855 2.23247408866882324 2.52034759521484375 0.524810791015625 -0.820226788520812988 -0.227599874138832092
-1.64713406562805176 5.49700021743774414 2.78149867057800293 0.0663091912865638733 0.995566189289093018 0.0667195320129394531
-2.33139491081237793 1.86231136322021484 1.90710008144378662 0.713814795017242432 -0.265916168689727783 0.64788663387298584
-2.08479404449462891 2.30239105224609375 2.47431588172912598 0.357376277446746826 -0.916398763656616211 -0.180264934897422791
-2.00426101684570312 1.3475193977355957 2.95467805862426758 0.243917018175125122 0.468186020851135254 -0.849297523498535156
-2.39354109764099121 1.90946877002716064 2.70039606094360352 0.793995261192321777 -0.349717259407043457 -0.497261881828308105
-2.28786873817443848 2.07366442680358887 2.01919937133789062 0.62735450267791748 -0.63281702995300293 0.453837931156158447
-1.79235720634460449 2.23658204078674316 2.74626374244689941 -0.0406631045043468475 -0.723904609680175781 -0.688700675964355469
-2.3291466236114502 1.53760969638824463 2.83642244338989258 0.696523785591125488 0.191100925207138062 -0.691617667675018311
-1.6755521297454834 1.99044513702392578 2.94811439514160156 -0.23457762598991394 -0.481005549430847168 -0.84475255012512207
-0.643472671508789062 2.74511098861694336 5.49700021743774414 0.346484780311584473 0.30544281005859375 0.886935234069824219
-2.18774700164794922 1.27614152431488037 2.81717228889465332 0.496704220771789551 0.566235601902008057 -0.657770693302154541
-1.83266568183898926 2.19993257522583008 2.79886412620544434 -0.0182112455368041992 -0.785498917102813721 -0.618595004081726074
-0.00300023844465613365 2.89349126815795898 4.22953414916992188 0.645445048809051514 0.618925929069519043 -0.447583913803100586
-1.83917868137359619 1.49512028694152832 3.03297162055969238 -0.00457948492839932442 0.142432302236557007 -0.989794015884399414
-2.12913036346435547 2.12533998489379883 1.92613363265991211 0.407900512218475342 -0.668115079402923584 0.622285664081573486
-2.29048705101013184 2.01901936531066895 2.75171899795532227 0.632596850395202637 -0.522753477096557617 -0.571445643901824951
-2.23317623138427734 2.66842770576477051 1.4107663631439209 0.141720861196517944 -0.918433487415313721 0.369317173957824707
-1.81244564056396484 1.19496822357177734 2.86696410179138184 0.0859930068254470825 0.425744116306304932 -0.900748133659362793
-4.30363559722900391 3.82066130638122559 3.62746763229370117 -0.24067234992980957 -0.941982448101043701 0.233978360891342163
-1.43408417701721191 2.20426130294799805 2.21907138824462891 -0.452990055084228516 -0.885151147842407227 -0.106336504220962524
-3.58399534225463867 -0.387274026870727539 5.49700021743774414 -0.0703568905591964722 -0.529134154319763184 0.845616400241851807
-1.98044872283935547 1.60238409042358398 3.03771305084228516 0.216938525438308716 0.0811012536287307739 -0.972810506820678711
-1.49093282222747803 2.23838639259338379 2.51540350914001465 -0.498724520206451416 -0.835840821266174316 -0.229442745447158813
-1.52666008472442627 1.70900511741638184 1.65299630165100098 0.673392295837402344 -0.679814040660858154 -0.290509492158889771
-5.49700021743774414 1.45270228385925293 0.553506374359130859 -0.95988231897354126 -0.0546693354845046997 0.275022268295288086
-3.0549626350402832 1.99980497360229492 5.49699974060058594 -0.3576851487159729 0.099212154746055603 0.928557276725769043
-2.26435279846191406 1.38236558437347412 2.83124136924743652 0.592801272869110107 0.410268425941467285 -0.693012595176696777
-2.11252117156982422 2.00641369819641113 2.89934349060058594 0.3774566650390625 -0.481390386819839478 -0.791068792343139648
-1.88199162483215332 2.09346556663513184 2.90279388427734375 0.0478951781988143921 -0.613182544708251953 -0.78848797082901001
-1.49526119232177734 1.73727285861968994 2.95467853546142578 -0.475485384464263916 -0.257357776165008545 -0.841237664222717285
-1.72020471096038818 1.38305747509002686 2.98088383674621582 -0.0601023398339748383 0.308634161949157715 -0.949280142784118652
-1.552215576171875 1.7444922924041748 2.98383736610412598 -0.22126200795173645 -0.109182737767696381 -0.969083309173583984
-1.28655159473419189 1.52363789081573486 2.7445061206817627 -0.719523251056671143 0.139515742659568787 -0.68031001091003418
-1.37652695178985596 1.9040905237197876 2.81065964698791504 -0.671311736106872559 -0.3399239182472229 -0.658629059791564941
-1.71135950088500977 1.45136022567749023 3.00611686706542969 -0.188904672861099243 0.29778677225112915 -0.935755372047424316
-1.84171998500823975 2.01037383079528809 2.96085023880004883 -0.0113501902669668198 -0.491222739219665527 -0.870959997177124023
-1.82556486129760742 1.51676154136657715 3.03797698020935059 0.119318597018718719 0.0281145740300416946 -0.992457866668701172
-3.91589760780334473 0.691882669925689697 0.748538374900817871 0.452450066804885864 0.891771137714385986 0.00575510179623961449
-2.0092778205871582 1.72646462917327881 3.0311732292175293 0.228132963180541992 -0.0439742878079414368 -0.97263646125793457
-2.393341064453125 1.57655131816864014 1.94592452049255371 0.989836573600769043 0.0186686478555202484 0.140979140996932983
-1.71569538116455078 4.74911880493164062 5.49700021743774414 0.0321452617645263672 0.702644228935241699 0.710814833641052246
-1.93087530136108398 1.00631821155548096 2.1680290699005127 0.136900991201400757 0.949528992176055908 0.282228410243988037
-2.17071056365966797 1.9763481616973877 2.88493251800537109 0.472948253154754639 -0.449676394462585449 -0.757701218128204346
-1.97265815734863281 1.33323419094085693 2.95455503463745117 0.195996314287185669 0.492752552032470703 -0.847809195518493652
-5.49700021743774414 1.73127293586730957 5.09873580932617188 -0.804458856582641602 0.0153159089386463165 0.593811333179473877
-0.219320297241210938 0.456980466842651367 0.00300095370039343834 0.393303424119949341 -0.194320335984230042 -0.89863896369934082
-2.04658794403076172 1.63012909889221191 3.02249908447265625 0.227775275707244873 -0.00603138096630573273 -0.973695039749145508
-2.1559760570526123 1.26353788375854492 2.82910776138305664 0.446889400482177734 0.566227972507476807 -0.692586302757263184
-2.26831316947937012 2.20817017555236816 2.40690994262695312 0.559764385223388672 -0.501583695411682129 0.659604191780090332
-1.99842667579650879 1.52265810966491699 3.0209956169128418 0.230439513921737671 0.214388385415077209 -0.949176132678985596
-1.94780302047729492 1.89875316619873047 3.00450539588928223 0.149822115898132324 -0.328280091285705566 -0.932622969150543213
-3.36154913902282715 -0.268618583679199219 0.00300000002607703209 0.0660726800560951233 -0.00483613042160868645 -0.997803151607513428
-2.14493370056152344 1.15807008743286133 1.99561035633087158 0.563242912292480469 0.631725430488586426 0.532616615295410156
-2.34033489227294922 1.95866560935974121 2.74160623550415039 0.74506676197052002 -0.414271771907806396 -0.522737443447113037
-1.68971216678619385 1.25943398475646973 2.899566650390625 -0.215733602643013 0.569691777229309082 -0.793038725852966309
-1.7354133129119873 1.49095737934112549 3.02269530296325684 -0.169578760862350464 0.260639995336532593 -0.950426220893859863
-2.23673462867736816 2.44860982894897461 1.65299630165100098 0.519516587257385254 -0.844436883926391602 -0.130494683980941772
-1.61261880397796631 1.88933658599853516 1.74275994300842285 -0.365192949771881104 -0.362718105316162109 0.857362031936645508
-1.73449873924255371 1.99530351161956787 2.95935916900634766 -0.10445895791053772 -0.385227292776107788 -0.916890561580657959
-5.49700021743774414 4.2279052734375 3.18326616287231445 -0.670117437839508057 -0.719351291656494141 -0.1829652339220047
-0.00300000002607703209 -0.25200653076171875 0.325544595718383789 0.444717288017272949 -0.507853031158447266 -0.737774968147277832
-2.40155363082885742 1.7041858434677124 2.76704955101013184 0.594411611557006836 -0.107786327600479126 -0.796904683113098145
-2.19899916648864746 1.80789697170257568 2.93756246566772461 0.448173046112060547 -0.199922859668731689 -0.871304631233215332
-0.00300000002607703209 1.94312024116516113 4.07330608367919922 0.733972311019897461 0.11044369637966156 0.670139193534851074
-1.36374497413635254 2.11967015266418457 2.56108379364013672 -0.669057965278625488 -0.675510823726654053 -0.309913933277130127
-5.49700021743774414 1.74766087532043457 2.99916172027587891 -0.686322569847106934 -0.322154015302658081 0.65205681324005127
-2.65973067283630371 1.87215089797973633 0.777649164199829102 0.652991414070129395 -0.727434277534484863 -0.21081167459487915
-2.38534021377563477 1.2902451753616333 2.14802122116088867 0.77743685245513916 0.542405664920806885 0.318414896726608276
-2.06038498878479004 1.39095664024353027 2.95840001106262207 0.302953898906707764 0.382872819900512695 -0.872712612152099609
-2.88163518905639648 2.89074397087097168 1.04514193534851074 0.440251022577285767 0.800386548042297363 0.406891167163848877
-0.610819816589355469 -0.0417985916137695312 5.49700021743774414 0.33139309287071228 -0.45954662561416626 0.824011802673339844
-0.00300000002607703209 2.71662378311157227 1.17729330062866211 0.76606452465057373 0.430179715156555176 -0.477588474750518799
-0.351329326629638672 5.49700021743774414 5.49249696731567383 0.679481208324432373 0.729368269443511963 -0.0795440003275871277
-2.06041574478149414 5.47565174102783203 5.49700021743774414 0.95956718921661377 -0.0125808734446763992 0.281198412179946899
-1.79664313793182373 1.03886425495147705 2.06839346885681152 -0.192522495985031128 0.855885148048400879 0.479995489120483398
-5.49700021743774414 4.17960786819458008 4.75753498077392578 -0.968638479709625244 0.121818654239177704 -0.216563388705253601
-1.90183508396148682 2.33852100372314453 2.50324273109436035 0.076234772801399231 -0.97065579891204834 -0.228069156408309937
-2.18657231330871582 2.03996968269348145 2.83007550239562988 0.501286804676055908 -0.520323812961578369 -0.691357135772705078
-1.83837330341339111 1.64687049388885498 3.05533194541931152 -0.049841269850730896 0.0574367940425872803 -0.997104287147521973
-1.96324038505554199 1.49878251552581787 1.65299630165100098 0.842024087905883789 0.0943765640258789062 -0.531120061874389648
-0.00300000002607703209 4.13052940368652344 4.41447830200195312 0.87375640869140625 -0.0954963415861129761 -0.476896435022354126
-0.00300000002607703209 2.17100143432617188 3.95207428932189941 0.751411378383636475 0.200490936636924744 0.628637075424194336
-2.34334301948547363 1.3210979700088501 2.6915431022644043 0.709151029586791992 0.497204959392547607 -0.499892055988311768
-2.37307071685791016 0.925832748413085938 5.49700021743774414 -0.161310523748397827 -0.230249136686325073 0.959668636322021484
-2.3982231616973877 1.80321645736694336 2.74977874755859375 0.793021082878112793 -0.183194875717163086 -0.580996811389923096
-1.89345872402191162 1.61827659606933594 3.05122256278991699 0.0793787837028503418 0.0696911066770553589 -0.994405448436737061
