ply
format ascii 1.0
element vertex 380
property float x
property float y
property float z
property float nx
property float ny
property float nz
end_header
-3.84346699714660645 3.11531734466552734 3.30299234390258789 -0.602818965911865234 -0.317154824733734131 -0.732135415077209473
-5.49700021743774414 3.84840726852416992 1.79001295566558838 -0.817631304264068604 -0.378553211688995361 0.433793187141418457
-1.59605193138122559 -0.551585197448730469 0.00300000002607703209 0.0859862864017486572 0.0261511821299791336 -0.995953023433685303
-2.83950614929199219 0.953643918037414551 5.49700021743774414 0.228175908327102661 -0.372093766927719116 0.899712204933166504
-1.57193303108215332 1.53948783874511719 2.98520135879516602 -0.274922639131546021 0.146700233221054077 -0.950208783149719238
-0.832889437675476074 2.20282697677612305 0.529546260833740234 -0.0621195137500762939 0.136979579925537109 -0.988624155521392822
-5.49700021743774414 2.9441227912902832 5.09733390808105469 -0.392046332359313965 -0.908085644245147705 -0.147241905331611633
-1.67148828506469727 5.04009437561035156 0.00300047686323523521 -0.0592750199139118195 0.379600673913955688 -0.923249602317810059
-5.49700021743774414 4.61900901794433594 2.60645961761474609 -0.939111590385437012 0.230548471212387085 -0.254787713289260864
-5.49700021743774414 4.5653228759765625 4.48123645782470703 -0.238227993249893188 -0.5895882248878479 -0.77177274227142334
-2.44667148590087891 1.00397694110870361 0.108295261859893799 -0.221057996153831482 0.97363656759262085 0.0562597550451755524
-0.00300047686323523521 1.97538208961486816 1.33217239379882812 0.59809499979019165 -0.00957982800900936127 -0.80136793851852417
-1.89565801620483398 2.21941995620727539 2.77068877220153809 0.139907479286193848 -0.74976193904876709 -0.646748065948486328
-2.02810215950012207 2.25360965728759766 2.67221307754516602 0.328740775585174561 -0.765121102333068848 -0.553641915321350098
-2.03338432312011719 1.98837769031524658 2.94272565841674805 0.240487903356552124 -0.392375051975250244 -0.887810468673706055
-1.48287427425384521 2.08430290222167969 1.94125199317932129 -0.674866437911987305 -0.403976887464523315 0.617541968822479248
-0.00300023844465613365 2.93942832946777344 2.76958060264587402 0.439366519451141357 0.735201358795166016 0.516174435615539551
-0.481504917144775391 5.49700021743774414 0.540162324905395508 -0.721885502338409424 0.672535121440887451 0.163027107715606689
-3.83432269096374512 -0.474370241165161133 0.883123397827148438 -0.554171741008758545 -0.831032752990722656 0.0477312207221984863
-1.6767733097076416 5.49700021743774414 5.11901473999023438 -0.128961995244026184 0.499521017074584961 0.856649041175842285
-3.0665431022644043 4.32711553573608398 1.03806900978088379 0.100769087672233582 -0.482059270143508911 0.870324313640594482
-0.00300000002607703209 -0.816426753997802734 4.23771953582763672 0.0885662958025932312 -0.405804812908172607 -0.909658432006835938
-3.93146610260009766 0.693826377391815186 0.807708442211151123 0.106932654976844788 0.99341815710067749 0.0410600826144218445
-2.01132774353027344 1.83201122283935547 3.01202011108398438 0.245298087596893311 -0.201069504022598267 -0.948366940021514893
-0.00300000002607703209 1.80490231513977051 2.29962062835693359 0.591873228549957275 -0.77998119592666626 -0.203262031078338623
-1.56783914566040039 5.49699926376342773 3.29100155830383301 -0.144525036215782166 0.929211437702178955 -0.340115606784820557
-3.03201580047607422 4.21581411361694336 1.61371588706970215 -0.763809323310852051 -0.0223001539707183838 -0.645056545734405518
-1.12945878505706787 3.58536076545715332 5.49699974060058594 -0.368337631225585938 -0.274817585945129395 0.888145625591278076
-2.02894020080566406 2.12333965301513672 2.84456396102905273 0.234675928950309753 -0.579947948455810547 -0.780120253562927246
-0.00300000002607703209 4.94031381607055664 3.53052759170532227 0.562890052795410156 -0.672488152980804443 -0.480535626411437988
-0.00300000002607703209 2.6690671443939209 3.82327532768249512 0.73898160457611084 0.39055168628692627 0.548977077007293701
-2.06394433975219727 1.92971062660217285 2.96145200729370117 0.338059425354003906 -0.336703211069107056 -0.878832697868347168
-3.4974515438079834 0.165788069367408752 0.148653134703636169 -0.902183115482330322 -0.24351753294467926 0.356040537357330322
-1.33144724369049072 1.3110957145690918 2.65966796875 -0.736352086067199707 0.17725721001625061 -0.652966737747192383
-0.00300000002607703209 -0.380406618118286133 0.0235836505889892578 0.676846742630004883 0.653914451599121094 0.338044941425323486
-5.49700021743774414 0.42105555534362793 1.41622495651245117 -0.674840748310089111 0.0956086963415145874 -0.731743752956390381
-2.95475172996520996 3.96674132347106934 0.0487303733825683594 -0.58977353572845459 -0.763771772384643555 0.262335419654846191
-1.26029312610626221 3.69352054595947266 0.00299952318891882896 0.0505153872072696686 0.225043579936027527 -0.973038315773010254
-5.49700021743774414 4.21209096908569336 5.45291280746459961 -0.728371500968933105 0.605919182300567627 -0.319901406764984131
-3.90818905830383301 4.49370956420898438 5.49700021743774414 0.371081620454788208 -0.547580122947692871 0.749969601631164551
-5.49700021743774414 -0.110647201538085938 3.53297805786132812 -0.523708760738372803 -0.835511445999145508 -0.166282162070274353
-1.11976337432861328 5.49700021743774414 2.68567848205566406 -0.929844200611114502 0.329667478799819946 -0.163429096341133118
-5.49700021743774414 5.10492753982543945 4.36350202560424805 -0.548355638980865479 0.734465599060058594 -0.399832993745803833
-3.88726902008056641 4.34055137634277344 5.49699974060058594 0.0612695775926113129 0.0252923294901847839 0.997800767421722412
-3.22135114669799805 5.49700021743774414 0.846360445022583008 0.147603288292884827 0.42829442024230957 -0.891502797603607178
-5.49700021743774414 5.22229623794555664 0.350018501281738281 -0.995841383934020996 -0.0904073566198348999 0.0112472129985690117
-0.651170253753662109 4.44156694412231445 5.49700021743774414 0.114016570150852203 -0.912314772605895996 0.393296241760253906
-5.49700021743774414 0.228342294692993164 2.4679875373840332 -0.890449881553649902 -0.264868378639221191 0.370059162378311157
-5.49700021743774414 -0.137131452560424805 2.88724637031555176 -0.67357170581817627 -0.738285243511199951 -0.0351582616567611694
-1.72768485546112061 2.09620428085327148 1.65299642086029053 0.505139827728271484 -0.45421484112739563 -0.733841061592102051
-4.04910993576049805 3.39275574684143066 3.33786511421203613 0.965916097164154053 0.0572791062295436859 0.252438455820083618
-2.04946374893188477 4.21923732757568359 5.49700021743774414 0.67424309253692627 0.326041907072067261 0.662640929222106934
-1.91324567794799805 2.2672114372253418 2.69249820709228516 -0.109203331172466278 -0.731374442577362061 -0.673176050186157227
-1.69660460948944092 1.02820324897766113 2.13318753242492676 0.152750760316848755 0.891467630863189697 0.426559090614318848
-1.04798829555511475 1.48202848434448242 0.823782563209533691 -0.653278350830078125 0.533804833889007568 0.536916911602020264
-1.74920308589935303 1.28470742702484131 2.93110370635986328 -0.0384734123945236206 0.445198237895965576 -0.894605159759521484
-0.00300000002607703209 4.25770187377929688 0.00363492965698242188 0.99816429615020752 0.0603676214814186096 0.00487437890842556953
-5.49700021743774414 4.53196620941162109 3.80592155456542969 -0.969602584838867188 -0.184952616691589355 -0.16019776463508606
-5.49699926376342773 2.00762581825256348 4.99995660781860352 -0.900281667709350586 -0.419266939163208008 0.117081552743911743
-5.44910907745361328 3.3657081127166748 5.49700021743774414 -0.253932535648345947 0.572701513767242432 0.779442906379699707
-3.45339512825012207 3.52717733383178711 3.30299234390258789 0.257998526096343994 0.548326551914215088 -0.795471429824829102
-0.0423064231872558594 5.49700021743774414 3.40921139717102051 -0.0303136371076107025 0.28212621808052063 -0.958898246288299561
-5.49700021743774414 4.52693843841552734 4.47131586074829102 -0.84236752986907959 0.509647727012634277 -0.175146013498306274
-1.6923445463180542 2.07479476928710938 2.89748954772949219 -0.149195402860641479 -0.528391003608703613 -0.835789322853088379
-0.00300000002607703209 1.30354154109954834 4.94688844680786133 0.662499189376831055 -0.712233304977416992 -0.231988281011581421
-0.00300000002607703209 2.1231846809387207 5.42262363433837891 0.302463501691818237 -0.171369850635528564 -0.937629044055938721
-5.49700021743774414 0.28594207763671875 0.329071283340454102 -0.844087302684783936 -0.15491071343421936 0.513341307640075684
-2.90508460998535156 2.88347005844116211 2.63607597351074219 -0.811859190464019775 0.579066276550292969 0.0746149122714996338
-4.59598636627197266 5.49700021743774414 0.157916545867919922 -0.906679153442382812 0.419506430625915527 0.0441278889775276184
-3.86412930488586426 -0.482571125030517578 0.775411486625671387 0.833304047584533691 -0.142068967223167419 0.534247875213623047
-0.703112125396728516 4.8636784553527832 5.49700021743774414 0.83220374584197998 0.341295510530471802 0.436982929706573486
-3.39786982536315918 5.49700021743774414 5.48584842681884766 -0.887476980686187744 0.456461101770401001 -0.0634656175971031189
-3.82491636276245117 5.49700021743774414 3.6531071662902832 0.0296617038547992706 0.969668447971343994 -0.242617934942245483
-2.44600343704223633 1.6962512731552124 2.69811201095581055 0.791021466255187988 -0.134551689028739929 -0.596809029579162598
-1.63442909717559814 1.2670285701751709 2.88624310493469238 -0.249241232872009277 0.456244587898254395 -0.854236364364624023
-0.00300000002607703209 5.36722326278686523 5.34575986862182617 0.12747761607170105 -0.759222924709320068 0.638224124908447266
-3.06141161918640137 2.8349759578704834 2.36036062240600586 0.168632477521896362 0.727833926677703857 0.664695918560028076
-5.45229148864746094 0.0300457477569580078 5.49699974060058594 -0.325320988893508911 -0.525125682353973389 0.786390066146850586
-5.49700021743774414 4.33926105499267578 4.40289974212646484 -0.782927274703979492 0.441717416048049927 -0.438076049089431763
-0.220507144927978516 3.57679605484008789 5.49700021743774414 -0.415734589099884033 -0.794951140880584717 0.441834211349487305
-3.27062177658081055 4.60002422332763672 0.00300000002607703209 -0.873646020889282227 -0.0876639261841773987 -0.478599637746810913
-1.14648723602294922 5.49700021743774414 3.42354559898376465 -0.157686337828636169 0.922446787357330322 -0.352458447217941284
-2.76529097557067871 2.92683553695678711 2.69428515434265137 0.173193067312240601 0.231580227613449097 -0.957274675369262695
-3.3213050365447998 2.98307323455810547 5.49700021743774414 -0.391027063131332397 0.357372254133224487 0.848164975643157959
-2.44919180870056152 1.8730090856552124 2.62062239646911621 0.674394488334655762 -0.573724269866943359 -0.464792877435684204
-0.530199050903320312 3.02349686622619629 0.00300000002607703209 -0.949106872081756592 0.225311771035194397 -0.220069974660873413
-2.17281389236450195 5.49700021743774414 5.19268178939819336 -0.609412431716918945 0.60343092679977417 -0.514283657073974609
-3.44100403785705566 -0.372645139694213867 0.00300000002607703209 0.797901451587677002 -0.246608838438987732 -0.550033926963806152
-5.49700021743774414 1.59052169322967529 1.13794946670532227 -0.863401651382446289 -0.419901549816131592 -0.279678910970687866
-2.39697360992431641 5.49700021743774414 3.61669325828552246 0.45530739426612854 0.88957136869430542 0.0368514955043792725
-2.0556638240814209 1.48246514797210693 2.99425601959228516 0.691937088966369629 -0.4263419508934021 -0.582628190517425537
-0.859046816825866699 1.41065883636474609 5.49700021743774414 -0.47330126166343689 -0.172538965940475464 0.863838076591491699
-0.00300047686323523521 2.85326528549194336 5.13875150680541992 0.908116936683654785 -0.408896714448928833 -0.0901505574584007263
-2.72635173797607422 5.49700021743774414 3.16504764556884766 0.202827811241149902 0.955909609794616699 0.212362200021743774
-1.97778952121734619 2.23960471153259277 2.72070169448852539 0.199022203683853149 -0.75388258695602417 -0.626139998435974121
-1.86932504177093506 1.91610586643218994 3.00587344169616699 0.139153093099594116 -0.320254206657409668 -0.937055826187133789
-5.04120635986328125 1.80970776081085205 5.49700021743774414 -0.561237990856170654 -0.476644992828369141 0.67662501335144043
-1.83671045303344727 4.69078874588012695 5.49700021743774414 0.35119551420211792 -0.369463175535202026 0.860324740409851074
-2.56228160858154297 5.49700021743774414 0.630546331405639648 0.279197186231613159 0.912266194820404053 0.299698710441589355
-4.05400657653808594 5.49700021743774414 4.86236476898193359 0.256474584341049194 0.521005809307098389 -0.814109146595001221
-1.96071481704711914 5.49700021743774414 4.39311313629150391 -0.00267827510833740234 0.902899086475372314 0.429845213890075684
-2.27894735336303711 1.97415626049041748 2.80033779144287109 0.55981898307800293 -0.425186336040496826 -0.711209714412689209
-2.86460733413696289 2.23073887825012207 5.49700021743774414 0.424752771854400635 -0.225376680493354797 0.876806974411010742
-2.4614717960357666 3.20069217681884766 5.49700021743774414 -0.0398614294826984406 0.0581762492656707764 0.997510194778442383
-2.21596884727478027 1.99685037136077881 2.83996200561523438 0.51786041259765625 -0.466934382915496826 -0.716793537139892578
-0.824957013130187988 2.22940921783447266 1.06006872653961182 -0.552647113800048828 0.340991944074630737 0.760464072227478027
-5.49700021743774414 1.51572871208190918 1.29415273666381836 -0.919196605682373047 -0.387574613094329834 -0.0697387680411338806
-0.00300000002607703209 3.73983955383300781 5.49640893936157227 0.940674781799316406 0.339027673006057739 -0.013826366513967514
-1.57879292964935303 2.38318586349487305 5.49699926376342773 -0.174340486526489258 0.371309846639633179 0.911994755268096924
-2.83407306671142578 3.02212429046630859 3.30299210548400879 0.414531588554382324 0.672120749950408936 -0.613528549671173096
-5.49699926376342773 5.29760169982910156 1.06481266021728516 -0.783466637134552002 0.0621101558208465576 -0.618322253227233887
-2.19667339324951172 2.23920106887817383 2.51241207122802734 0.49622654914855957 -0.781242549419403076 -0.378707349300384521
-2.1516728401184082 2.28312873840332031 2.38864636421203613 0.451225191354751587 -0.87423175573348999 -0.179205626249313354
-1.2115548849105835 1.8496401309967041 2.14780592918395996 -0.837434649467468262 -0.414089828729629517 0.356697171926498413
-2.20938491821289062 5.49700021743774414 5.19083976745605469 -0.315094649791717529 0.328562945127487183 0.89037168025970459
-1.89236211776733398 2.04190874099731445 2.93941640853881836 0.116590395569801331 -0.450197160243988037 -0.885284900665283203
-1.44260692596435547 1.40992593765258789 2.86286425590515137 -0.571311771869659424 0.191618025302886963 -0.798050999641418457
-2.81946468353271484 1.02919232845306396 0.00300000002607703209 0.368204891681671143 0.740139126777648926 -0.562689304351806641
-2.24775362014770508 0.0609891414642333984 0.00300000002607703209 0.815990924835205078 0.0183613300323486328 -0.577773034572601318
-2.28965187072753906 5.24813222885131836 0.00300000002607703209 -0.307936608791351318 -0.0517410449683666229 -0.949998915195465088
-2.60510516166687012 3.3637385368347168 0.00299976160749793053 0.147693425416946411 -0.288833886384963989 -0.945918440818786621
-0.00300000002607703209 5.06499433517456055 5.00755929946899414 0.88941800594329834 0.242055073380470276 -0.38774341344833374
-5.49699926376342773 2.09096765518188477 3.56376028060913086 -0.941417276859283447 -0.0440138131380081177 -0.334359586238861084
-0.59756922721862793 5.49700021743774414 4.80146026611328125 -0.205012246966362 0.454329967498779297 0.866922259330749512
-0.477479219436645508 5.49700021743774414 2.93800997734069824 0.363477319478988647 0.0881312191486358643 0.927424967288970947
-0.00300000002607703209 1.2648775577545166 4.02176141738891602 0.452837049961090088 -0.802517116069793701 -0.388464808464050293
-0.00299976160749793053 1.79203510284423828 1.72231400012969971 0.878161311149597168 -0.472991466522216797 -0.071497499942779541
-1.66234254837036133 2.50139451026916504 0.00300000002607703209 0.890501856803894043 -0.14345259964466095 -0.431772857904434204
-0.651376724243164062 4.70526313781738281 5.49700021743774414 -0.365654259920120239 -0.62719273567199707 0.687696337699890137
-4.21037769317626953 -0.190248250961303711 5.49700021743774414 -0.0300218202173709869 -0.525990903377532959 0.849960207939147949
-0.119424581527709961 5.49700021743774414 5.35096645355224609 -0.466153353452682495 0.62441098690032959 0.62674713134765625
-5.49700021743774414 2.79468703269958496 4.40260696411132812 -0.416637927293777466 0.819324493408203125 -0.393853068351745605
-0.00300000002607703209 1.35358858108520508 5.45913934707641602 0.552466750144958496 -0.0999324247241020203 0.827522993087768555
-0.870705246925354004 5.49700021743774414 3.43042421340942383 -0.224098846316337585 0.621628284454345703 0.750571787357330322
-2.59451913833618164 5.49700021743774414 4.48519563674926758 0.411237865686416626 0.838408946990966797 -0.357706427574157715
-0.53027033805847168 4.51421260833740234 5.49700021743774414 -0.241540536284446716 -0.197154834866523743 0.950151622295379639
-5.49700021743774414 4.96633148193359375 3.62716293334960938 -0.879237353801727295 -0.401323616504669189 0.256673067808151245
-1.51827168464660645 5.49700021743774414 5.28241252899169922 0.436820089817047119 0.544890880584716797 -0.715738892555236816
-3.17728948593139648 4.53287649154663086 0.823953032493591309 -0.502517819404602051 -0.716235876083374023 0.48423340916633606
-5.49700021743774414 4.901214599609375 3.12969636917114258 -0.933957457542419434 -0.189670786261558533 -0.302900075912475586
-2.42900919914245605 5.49700021743774414 0.0905694961547851562 -0.735760331153869629 0.437119215726852417 0.517284750938415527
-0.363680601119995117 4.97989654541015625 0.00300047686323523521 0.0412729345262050629 0.0486821457743644714 -0.997961223125457764
-1.88444352149963379 1.92803347110748291 1.65299630165100098 -0.766926825046539307 -0.306089341640472412 -0.564032375812530518
-0.385446071624755859 0.70501255989074707 0.00299952318891882896 -0.0762094780802726746 -0.332659065723419189 -0.939962804317474365
-1.81972277164459229 2.13872885704040527 2.86430692672729492 -0.26058042049407959 -0.63995826244354248 -0.722877144813537598
-0.00300000002607703209 3.92874789237976074 0.665478229522705078 0.569574475288391113 0.703749120235443115 0.424643486738204956
-3.22967123985290527 2.78277993202209473 1.07877469062805176 -0.83558279275894165 0.543770432472229004 -0.0781989619135856628
-0.00300000002607703209 5.07895231246948242 0.315691471099853516 0.584935605525970459 0.585333824157714844 0.561457633972167969
-3.58436298370361328 3.49275588989257812 4.39565372467041016 -0.285495996475219727 -0.838783562183380127 -0.463609874248504639
-1.27270269393920898 1.45691859722137451 2.02728271484375 0.157786846160888672 0.701781034469604492 0.694698989391326904
-2.17960762977600098 2.10033631324768066 2.77980208396911621 0.442604243755340576 -0.584361910820007324 -0.680163681507110596
-5.49700021743774414 1.63094401359558105 2.72607851028442383 -0.790605127811431885 -0.480670064687728882 0.379341274499893188
-2.26439166069030762 5.49700021743774414 3.87377357482910156 0.315816164016723633 0.808162391185760498 0.497125446796417236
-1.94564545154571533 4.93906402587890625 5.49700021743774414 -0.0191838294267654419 0.746302008628845215 0.665331244468688965
-0.00300000002607703209 1.17604160308837891 2.72189855575561523 0.68797910213470459 -0.480516314506530762 0.543864667415618896
-1.9676661491394043 2.29744434356689453 2.60988593101501465 0.219560429453849792 -0.857415318489074707 -0.465437591075897217
-0.931054234504699707 2.02843976020812988 1.65299630165100098 0.707606792449951172 0.496498435735702515 -0.502774715423583984
-1.83616840839385986 2.06341814994812012 2.92661762237548828 0.0446099713444709778 -0.553914189338684082 -0.831377863883972168
-2.44265151023864746 1.80128312110900879 2.67707490921020508 0.795188963413238525 -0.229710385203361511 -0.561166346073150635
-2.03235197067260742 1.94352805614471436 1.75056874752044678 0.307915806770324707 -0.648244321346282959 0.6963958740234375
-0.971505403518676758 1.73832345008850098 0.227239310741424561 -0.797073900699615479 0.275659084320068359 0.537294387817382812
-0.0549323558807373047 2.99240398406982422 0.00300000002607703209 0.163921356201171875 0.120595172047615051 -0.979074358940124512
-3.87259459495544434 4.63576030731201172 0.00300000002607703209 -0.0458459779620170593 0.360163122415542603 -0.931762158870697021
-2.94889640808105469 5.29204988479614258 0.00300000002607703209 -0.383106052875518799 0.3153647780418396 -0.868202030658721924
-1.51031637191772461 1.22882461547851562 2.78037047386169434 -0.327393829822540283 0.412502080202102661 -0.850091338157653809
-2.53790187835693359 1.61519324779510498 1.65299630165100098 -0.239553481340408325 -0.56523585319519043 -0.789381265640258789
-1.05274808406829834 1.46607780456542969 0.321020364761352539 -0.726798832416534424 0.593223333358764648 0.346192985773086548
-2.21990489959716797 3.28863906860351562 0.00300000002607703209 -0.706395864486694336 0.659108161926269531 -0.258033543825149536
-5.49700069427490234 3.46687126159667969 4.40317487716674805 -0.916900217533111572 -0.290351718664169312 -0.273842841386795044
-2.81154322624206543 3.50509047508239746 1.00001645088195801 -0.236694872379302979 -0.508783519268035889 -0.827716648578643799
-1.02934384346008301 5.49700021743774414 5.10683631896972656 0.162848323583602905 0.977487385272979736 -0.134159669280052185
-3.19656133651733398 2.34002017974853516 0.00300000002607703209 0.630545496940612793 -0.371781140565872192 -0.681315779685974121
-2.91871452331542969 3.8505706787109375 0.892138302326202393 -0.965069353580474854 -0.17219860851764679 0.19745577871799469
-1.09636616706848145 -0.401524066925048828 5.49700021743774414 0.485795855522155762 -0.788038492202758789 0.37815016508102417
-5.49700021743774414 4.4819488525390625 2.89726924896240234 -0.62264096736907959 -0.641783416271209717 0.447696655988693237
-4.34308290481567383 4.10597896575927734 3.30299210548400879 -0.577562868595123291 0.440633773803710938 -0.687213599681854248
-1.93146371841430664 2.24032902717590332 2.73366832733154297 0.196401119232177734 -0.772998273372650146 -0.603241562843322754
-1.58221828937530518 1.69259417057037354 3.00165414810180664 -0.273350238800048828 -0.133458986878395081 -0.952611267566680908
-0.325916528701782227 0.169747829437255859 0.00300000002607703209 -0.0951242297887802124 0.0849999189376831055 -0.991829872131347656
-3.58236789703369141 3.38813042640686035 3.30299234390258789 0.799427807331085205 0.479039967060089111 -0.362540900707244873
-2.8632657527923584 3.67182469367980957 0.587371826171875 -0.482143640518188477 -0.075453929603099823 0.872836887836456299
-5.49700069427490234 1.80231559276580811 4.92961311340332031 -0.957442820072174072 -0.253563284873962402 -0.137872830033302307
-3.43938875198364258 5.49700021743774414 2.04910707473754883 -0.359257638454437256 0.926971316337585449 0.107972972095012665
-1.48038077354431152 5.49700021743774414 4.24512910842895508 -0.382301479578018188 0.785637557506561279 0.486435234546661377
-0.00300000002607703209 2.9991304874420166 1.02653968334197998 0.956718027591705322 -0.290201395750045776 -0.0217687971889972687
-5.49700021743774414 4.67049217224121094 3.13479280471801758 -0.819709181785583496 -0.27005884051322937 0.505118906497955322
-0.756890058517456055 -0.734861850738525391 5.49700021743774414 0.290241628885269165 -0.116498596966266632 0.949835717678070068
-1.69359815120697021 5.49700069427490234 4.39692163467407227 0.151710778474807739 0.966155827045440674 -0.208630755543708801
-3.07797598838806152 3.9444739818572998 3.30299234390258789 0.622590124607086182 0.722844243049621582 -0.299796581268310547
-0.00300000002607703209 0.879480719566345215 0.292932987213134766 0.618335902690887451 -0.102233469486236572 0.779236197471618652
-3.23062229156494141 -0.517962217330932617 0.00300000002607703209 -0.491754591464996338 -0.518165171146392822 -0.699773132801055908
-4.53892898559570312 4.60192203521728516 0.00300000002607703209 -0.499725461006164551 0.0501658357679843903 -0.864729940891265869
-0.0716471672058105469 4.73287248611450195 0.00300000002607703209 0.289679020643234253 0.111791960895061493 -0.950572788715362549
-1.55908071994781494 1.98039031028747559 2.90693092346191406 -0.293511092662811279 -0.404661446809768677 -0.866083383560180664
-5.49700021743774414 4.48568630218505859 4.23918247222900391 -0.842443943023681641 0.102663084864616394 0.528912544250488281
-3.2225944995880127 0.964973092079162598 5.49699974060058594 -0.573507487773895264 0.25085720419883728 0.779846012592315674
-4.25937271118164062 5.49700021743774414 2.79104733467102051 -0.759249091148376465 0.619732022285461426 0.198678150773048401
-1.33988571166992188 0.673692822456359863 0.102379024028778076 -0.396736592054367065 0.82507777214050293 0.402301818132400513
-1.55994343757629395 1.44968116283416748 2.9543609619140625 -0.333230793476104736 0.238738030195236206 -0.912119269371032715
-0.270850658416748047 5.49700021743774414 4.39781379699707031 -0.127072706818580627 0.174644768238067627 0.976397335529327393
-1.85581564903259277 1.26407194137573242 2.92449331283569336 0.0696932598948478699 0.448447853326797485 -0.891087770462036133
-0.00300000002607703209 5.46663093566894531 4.56126546859741211 0.844721853733062744 -0.0789973139762878418 0.529343366622924805
-0.00300000002607703209 4.14849948883056641 5.46465587615966797 0.943434298038482666 -0.315240204334259033 0.102739118039608002
-5.49700021743774414 1.73912703990936279 0.684212684631347656 -0.797695338726043701 0.516748130321502686 0.310891538858413696
-0.0823869705200195312 5.30332612991333008 0.00300000002607703209 -0.258606612682342529 0.83871382474899292 -0.479251265525817871
-5.49700021743774414 1.51920199394226074 3.93519496917724609 -0.843823790550231934 -0.536029696464538574 0.0251704230904579163
-1.56552112102508545 2.07827496528625488 2.84043240547180176 -0.306715875864028931 -0.580364584922790527 -0.754388749599456787
-1.87284469604492188 4.9082341194152832 0.00300023844465613365 -0.608306527137756348 -0.218324452638626099 -0.763084232807159424
-1.74518477916717529 1.76481807231903076 3.04009866714477539 -0.0623428970575332642 -0.102894037961959839 -0.992736697196960449
-0.76730656623840332 3.26916050910949707 5.49700021743774414 -0.120551168918609619 -0.83643871545791626 0.534637928009033203
-2.01193976402282715 1.67643642425537109 3.03340029716491699 -0.106502503156661987 -0.0251970868557691574 -0.993993163108825684
-1.96865248680114746 1.96793019771575928 2.97097325325012207 0.412086784839630127 -0.51141434907913208 -0.754082083702087402
-2.38031482696533203 1.87914443016052246 2.74020552635192871 0.728561043739318848 -0.267118215560913086 -0.630750834941864014
-0.214413642883300781 5.49700021743774414 4.37640857696533203 -0.329994410276412964 0.912216603755950928 0.242826119065284729
-2.3020937442779541 2.14893078804016113 2.54208827018737793 0.653876781463623047 -0.636609673500061035 -0.408868193626403809
-2.29600024223327637 1.93746447563171387 2.80730175971984863 0.618524670600891113 -0.347672551870346069 -0.704663872718811035
-4.07083463668823242 -0.355220586061477661 0.74832528829574585 -0.816179156303405762 0.435793161392211914 -0.37938883900642395
-2.06348156929016113 2.31770205497741699 2.41693305969238281 0.0775935575366020203 -0.976479172706604004 -0.201165646314620972
-4.09171962738037109 2.97762107849121094 3.76844215393066406 -0.224184796214103699 0.456238687038421631 0.861154735088348389
-2.84844207763671875 2.91788554191589355 3.30299258232116699 -0.672465682029724121 0.38764527440071106 -0.630492746829986572
-5.21074295043945312 5.49700021743774414 1.09903645515441895 -0.830939054489135742 0.14885324239730835 0.536081135272979736
-0.953935861587524414 5.49700021743774414 5.12167739868164062 -0.196088254451751709 0.91906052827835083 0.341872990131378174
-3.98466801643371582 4.28242015838623047 2.43770861625671387 -0.779857754707336426 -0.348265588283538818 0.520127832889556885
-0.00300000002607703209 5.29207134246826172 4.2570643424987793 0.916170954704284668 -0.0458399727940559387 0.398157656192779541
-3.45636272430419922 5.49700021743774414 0.428210735321044922 -0.623203516006469727 0.61052393913269043 0.488751351833343506
-3.51548290252685547 0.314652204513549805 0.00300000002607703209 -0.162343472242355347 0.772454500198364258 -0.613969504833221436
-5.49700069427490234 4.83539533615112305 2.89428257942199707 -0.78118288516998291 0.094339318573474884 0.617133200168609619
-1.9048837423324585 2.35086321830749512 2.29725217819213867 0.329947799444198608 -0.915844261646270752 -0.228831082582473755
-4.26951789855957031 0.77143561840057373 0.00300023844465613365 0.399871408939361572 -0.222528934478759766 -0.889147758483886719
-2.28935813903808594 4.69792366027832031 5.49700021743774414 0.456207990646362305 0.524778842926025391 0.718666374683380127
-4.29463481903076172 5.49700021743774414 4.2322688102722168 -0.0671993345022201538 0.886543452739715576 -0.457738906145095825
-3.07153987884521484 2.83183407783508301 1.3262016773223877 -0.416080445051193237 0.853360116481781006 0.314091533422470093
-4.41400384902954102 -0.334385514259338379 0.963165640830993652 -0.939985990524291992 -0.335939347743988037 0.0597568787634372711
-5.41445350646972656 0.97545623779296875 0.00300000002607703209 -0.173405274748802185 -0.602776944637298584 -0.778839290142059326
-5.49700021743774414 5.03867673873901367 5.39823246002197266 -0.734001874923706055 0.675978243350982666 -0.0655336901545524597
-4.14678859710693359 3.22998380661010742 4.33200216293334961 -0.312704712152481079 0.112941108644008636 -0.943111896514892578
-0.00300000002607703209 2.72362351417541504 4.39351034164428711 0.592271089553833008 0.242388322949409485 -0.76841580867767334
-0.437522411346435547 5.49700021743774414 3.99732780456542969 -0.11809404194355011 0.704552888870239258 0.699756383895874023
-0.00300000002607703209 4.10497760772705078 0.131405353546142578 0.406610250473022461 -0.889198541641235352 0.209747567772865295
-5.49700021743774414 -0.306682825088500977 0.699612140655517578 -0.704280197620391846 -0.302185863256454468 -0.642396390438079834
-5.40178012847900391 1.76550710201263428 5.49700021743774414 -0.593026161193847656 -0.288046777248382568 0.751896977424621582
-1.86356723308563232 1.75998938083648682 3.04767084121704102 0.0881233960390090942 -0.119299411773681641 -0.988939762115478516
-2.33243775367736816 5.49700021743774414 4.77934646606445312 -0.0971322357654571533 0.860283732414245605 0.500477313995361328
-0.00300000002607703209 2.20899105072021484 3.34566903114318848 0.567913949489593506 0.330277621746063232 0.753916740417480469
-2.92217040061950684 5.49700021743774414 5.44247341156005859 0.427715986967086792 0.712106406688690186 0.556744098663330078
-3.99990558624267578 5.49700021743774414 5.06717395782470703 -0.291513979434967041 0.758383452892303467 -0.58298724889755249
-5.49700021743774414 -0.0450649261474609375 5.08514881134033203 -0.925438642501831055 0.328445106744766235 -0.188910499215126038
-3.62478876113891602 3.2837984561920166 3.30299234390258789 0.444180190563201904 0.408761978149414062 -0.797256410121917725
-4.5470118522644043 -0.104796133935451508 0.74832528829574585 0.251676559448242188 -0.703214049339294434 -0.664942800998687744
-2.2821648120880127 1.96941030025482178 2.80045771598815918 0.584459304809570312 -0.382947027683258057 -0.715373218059539795
-0.200500965118408203 4.78838634490966797 5.49699926376342773 0.137163937091827393 -0.0374486446380615234 0.989840209484100342
-2.25150275230407715 0.508252143859863281 0.00300047686323523521 0.426774919033050537 0.148801848292350769 -0.892032027244567871
-2.065643310546875 5.49699926376342773 4.2719879150390625 0.115826644003391266 0.914452910423278809 -0.38776281476020813
-3.33905196189880371 3.61558246612548828 4.07975482940673828 -0.787093281745910645 -0.225984260439872742 -0.57394707202911377
-0.00300000002607703209 3.24838995933532715 5.16948795318603516 0.808632791042327881 -0.168901756405830383 -0.563547015190124512
-0.00300000002607703209 5.4751434326171875 5.325927734375 0.81202089786529541 0.520083963871002197 -0.264829576015472412
-2.54050445556640625 1.61601805686950684 5.49700021743774414 -0.226240754127502441 -0.0399561077356338501 0.973251700401306152
-4.64019107818603516 4.079071044921875 2.7188117504119873 -0.0928356796503067017 -0.826861083507537842 0.554691135883331299
-1.80083847045898438 2.17084836959838867 2.83041596412658691 0.036995280534029007 -0.67190086841583252 -0.739716649055480957
-1.38136887550354004 2.14591598510742188 2.53954052925109863 -0.820904016494750977 -0.529057443141937256 -0.214976370334625244
-5.49700021743774414 2.06596946716308594 0.839840173721313477 -0.372782677412033081 -0.662608027458190918 0.649602711200714111
-3.60500812530517578 3.08072447776794434 4.17529630661010742 -0.0579762496054172516 0.733608424663543701 -0.677094817161560059
-5.49700021743774414 4.44402456283569336 1.70637750625610352 -0.70116126537322998 -0.294069081544876099 -0.649535417556762695
-5.49700021743774414 5.10693264007568359 5.31253814697265625 -0.391268074512481689 0.344513088464736938 -0.853358089923858643
-1.57220780849456787 5.14889049530029297 5.49700021743774414 -0.360714048147201538 -0.132501974701881409 0.923216462135314941
-3.09954166412353516 3.01574277877807617 5.49700021743774414 0.264029383659362793 -0.0178716480731964111 0.964349031448364258
-0.405103445053100586 1.47865056991577148 0.00300000002607703209 -0.0708677098155021667 0.14903394877910614 -0.986289322376251221
-2.75980997085571289 2.92853593826293945 2.46858787536621094 -0.475901693105697632 0.182981744408607483 0.860253036022186279
-0.00300023844465613365 2.64343476295471191 0.278128623962402344 0.601723730564117432 -0.791101574897766113 0.109940283000469208
-5.49700021743774414 -0.280862331390380859 4.94510316848754883 -0.728531122207641602 -0.681047022342681885 -0.0736030414700508118
-3.62633132934570312 3.32639312744140625 3.39359736442565918 -0.872950434684753418 0.474897116422653198 0.111491240561008453
-3.89066839218139648 5.20978212356567383 0.00300000002607703209 -0.0457882285118103027 -0.064814053475856781 -0.996846318244934082
-1.01307106018066406 5.49700021743774414 3.16389560699462891 0.22076772153377533 0.963670551776885986 0.150336027145385742
-2.96053194999694824 4.01571941375732422 0.00300000002607703209 0.00487091857939958572 0.0356979258358478546 -0.999350786209106445
-2.67311573028564453 1.74371755123138428 1.65299630165100098 -0.81463158130645752 -0.326716184616088867 -0.47919917106628418
-0.00300000002607703209 3.0313568115234375 3.56780028343200684 0.996461093425750732 0.00623100483790040016 0.0838241651654243469
-1.53147292137145996 2.25210070610046387 2.54813933372497559 -0.178556725382804871 -0.504044413566589355 0.845018744468688965
-5.49700021743774414 4.3022456169128418 3.35078120231628418 -0.929434120655059814 -0.269037097692489624 0.252529799938201904
-5.49700021743774414 4.33780479431152344 3.76751565933227539 -0.953584730625152588 -0.0253661386668682098 -0.300054609775543213
-3.66828751564025879 2.96790742874145508 3.84308886528015137 -0.692604482173919678 0.212029144167900085 -0.689450979232788086
-2.77524971961975098 1.48504471778869629 0.98124927282333374 0.124830111861228943 -0.93868255615234375 -0.321391701698303223
-0.137428998947143555 5.49700021743774414 4.04545164108276367 -0.166261330246925354 0.0633745938539505005 0.984043121337890625
-1.16381275653839111 1.09389853477478027 1.23095130920410156 -0.922402918338775635 -0.0472396053373813629 0.383329182863235474
-5.49700021743774414 3.46410775184631348 5.23945188522338867 -0.572249352931976318 -0.813520908355712891 -0.10351051390171051
-0.00300023844465613365 0.264637470245361328 1.37266254425048828 0.889173746109008789 -0.439986944198608398 0.125624403357505798
-0.00300000002607703209 0.813251495361328125 5.48150110244750977 0.912169516086578369 -0.407627403736114502 -0.0422693602740764618
-4.7028651237487793 2.06314516067504883 5.49700021743774414 -0.336411625146865845 -0.192404106259346008 0.921850264072418213
-0.00299976160749793053 2.71664786338806152 3.33169865608215332 0.771487772464752197 0.332077652215957642 -0.542707145214080811
-2.15221190452575684 1.37282073497772217 2.90670204162597656 0.418640732765197754 0.287550449371337891 -0.861425995826721191
-3.45451116561889648 5.10089445114135742 0.00299952318891882896 -0.229935422539710999 0.242990732192993164 -0.942382752895355225
-3.71960639953613281 5.339080810546875 5.49700021743774414 -0.672064900398254395 -0.0688972845673561096 0.737280070781707764
-1.42442464828491211 1.64032316207885742 2.91051936149597168 -0.571633875370025635 -0.0535723380744457245 -0.818758130073547363
-1.4626457691192627 5.49700021743774414 4.66840314865112305 -0.251132547855377197 0.95118248462677002 -0.179400011897087097
-0.00300023844465613365 0.363058090209960938 0.138773441314697266 0.321832627058029175 -0.94662022590637207 -0.0182740874588489532
-3.39550471305847168 3.05883550643920898 5.49700021743774414 -0.621113419532775879 -0.501373648643493652 0.602364122867584229
-0.00300000002607703209 2.93682718276977539 3.75514554977416992 0.876917719841003418 -0.347842872142791748 -0.331693649291992188
-3.87904739379882812 5.49700021743774414 3.95363640785217285 -0.108759135007858276 0.97827303409576416 0.17650306224822998
-1.66482830047607422 1.70342755317687988 1.65299606323242188 0.454536467790603638 -0.858891665935516357 -0.236012205481529236
-3.36745333671569824 5.49700021743774414 2.76225566864013672 0.579253911972045898 0.764698266983032227 0.282314509153366089
-4.60432910919189453 4.94354724884033203 0.00300000002607703209 -0.199879065155982971 0.19738517701625824 -0.959733068943023682
-0.00300000002607703209 2.37859797477722168 0.131699562072753906 0.686894059181213379 0.382305622100830078 0.618076801300048828
-3.02843809127807617 2.84520435333251953 0.89988178014755249 -0.550311923027038574 0.833009779453277588 -0.0570216141641139984
-0.00300000002607703209 0.460694789886474609 0.87427222728729248 0.119127407670021057 -0.782049238681793213 0.611725151538848877
-0.00300023844465613365 4.87160873413085938 2.36347508430480957 0.908204436302185059 -0.416521340608596802 -0.0409230627119541168
-0.00300000002607703209 4.23919153213500977 0.316143512725830078 0.923660457134246826 0.143482133746147156 0.355336844921112061
-2.18238449096679688 2.17878890037536621 2.04137897491455078 -0.220767989754676819 -0.751387059688568115 0.621835172176361084
-0.00300000002607703209 0.953214287757873535 2.51403617858886719 0.266181379556655884 -0.50952756404876709 -0.818247616291046143
-0.00300000002607703209 -0.62774968147277832 4.61773300170898438 0.186668947339057922 -0.850133180618286133 -0.492370009422302246
-1.46607565879821777 2.43951177597045898 0.446399897336959839 0.740493416786193848 -0.61907958984375 0.261552959680557251
-1.5362849235534668 1.36905252933502197 2.90514469146728516 -0.350210577249526978 0.346180140972137451 -0.870351552963256836
-3.66893577575683594 2.96970677375793457 3.82290863990783691 0.608762681484222412 0.481972575187683105 0.630167007446289062
-5.49700021743774414 1.40846359729766846 1.6000978946685791 -0.517831742763519287 -0.223357483744621277 -0.825809717178344727
-1.78078567981719971 2.01306581497192383 2.95606064796447754 0.442701935768127441 -0.156501084566116333 -0.88290560245513916
-5.3033604621887207 2.7146754264831543 5.49700021743774414 -0.702006697654724121 -0.490665555000305176 0.516172349452972412
-1.45036482810974121 2.12060260772705078 2.69988059997558594 -0.270881116390228271 -0.892310738563537598 -0.361116290092468262
-0.00300000002607703209 0.557329177856445312 5.3148350715637207 0.616273343563079834 0.761648952960968018 -0.200244888663291931
-1.17315125465393066 5.49700021743774414 1.185638427734375 -0.0971174240112304688 0.505319118499755859 0.857450187206268311
-0.271638631820678711 5.49700021743774414 5.11874294281005859 -0.691761016845703125 0.696285665035247803 -0.191449567675590515
-1.88549017906188965 2.29149770736694336 2.64912629127502441 -0.521758019924163818 -0.0639329180121421814 -0.850694537162780762
-1.19972455501556396 1.43988609313964844 2.4683072566986084 -0.881088614463806152 0.101327046751976013 -0.461969375610351562
-3.53422999382019043 0.206038713455200195 0.00300000002607703209 0.830584943294525146 0.320860832929611206 -0.455166935920715332
-4.33389854431152344 5.49700021743774414 5.01553535461425781 0.762624442577362061 0.391651898622512817 -0.514793872833251953
-3.26286029815673828 5.21956443786621094 5.49700021743774414 0.235026746988296509 0.698576986789703369 0.675834834575653076
-0.00300000002607703209 0.374552249908447266 1.58287358283996582 0.514203369617462158 -0.790172934532165527 -0.333499103784561157
-1.48832213878631592 5.49700021743774414 1.95157432556152344 -0.82986760139465332 0.506001472473144531 0.23512190580368042
-2.12264895439147949 1.37817668914794922 2.92531681060791016 0.351291894912719727 0.300266444683074951 -0.886811196804046631
-0.00300000002607703209 1.04828441143035889 0.0329518318176269531 0.88431549072265625 -0.323514819145202637 0.33663669228553772
-5.49700021743774414 3.41387057304382324 1.69801080226898193 -0.943371236324310303 0.275560349225997925 0.184708774089813232
-1.72253108024597168 3.9136345386505127 0.00300000002607703209 -0.484892040491104126 -0.149412080645561218 -0.861716747283935547
-0.169237375259399414 5.49700021743774414 2.87657642364501953 -0.234838947653770447 0.578623533248901367 -0.781054079532623291
-3.61430835723876953 5.49700021743774414 4.86702966690063477 -0.731307506561279297 0.677402257919311523 -0.0794701874256134033
-0.00300000002607703209 5.44543361663818359 4.87035942077636719 0.13331177830696106 0.972231149673461914 -0.192339807748794556
-2.2717585563659668 5.49700021743774414 0.908548712730407715 0.741296529769897461 0.496084362268447876 -0.452083826065063477
-0.405390024185180664 0.246543407440185547 0.00300000002607703209 -0.351913988590240479 0.237159445881843567 -0.905489921569824219
-1.80124378204345703 2.10941195487976074 2.88940644264221191 0.0362534224987030029 -0.591017484664916992 -0.805843710899353027
-1.35087895393371582 3.25614547729492188 5.49700021743774414 -0.958425998687744141 0.14942757785320282 0.243086457252502441
-0.00300000002607703209 2.12000560760498047 0.961230278015136719 0.53457564115524292 0.321660429239273071 -0.781513571739196777
-2.45588135719299316 4.28540563583374023 0.00300023844465613365 -0.43897518515586853 0.598491489887237549 -0.670155763626098633
-5.49700021743774414 0.608705520629882812 5.37985515594482422 -0.562084436416625977 -0.788012683391571045 -0.251191467046737671
-2.4011225700378418 1.518485426902771 2.74227714538574219 0.762159824371337891 0.115124493837356567 -0.637070596218109131
-2.46244597434997559 5.49700021743774414 2.85998868942260742 0.477952092885971069 0.877061426639556885 0.0482191219925880432
-5.49700021743774414 2.13638162612915039 3.56080293655395508 -0.334553450345993042 -0.797132670879364014 -0.502646505832672119
-3.18103361129760742 1.68676257133483887 0.00300000002607703209 0.853656530380249023 -0.0242600776255130768 -0.520271122455596924
-0.298244953155517578 4.92069053649902344 0.00300000002607703209 -0.714679360389709473 -0.606689393520355225 -0.348082482814788818
-4.32401371002197266 5.49699926376342773 3.45803499221801758 -0.740978658199310303 0.565497875213623047 -0.362164050340652466
-1.21784591674804688 1.37306320667266846 2.37700247764587402 -0.999866008758544922 -0.00721007585525512695 0.0146993193775415421
-0.00300000002607703209 1.24535155296325684 1.63774299621582031 0.762199103832244873 -0.633042335510253906 0.13531436026096344
-1.94557130336761475 2.24226021766662598 2.72680902481079102 0.375662326812744141 -0.723497569561004639 -0.579162418842315674
-0.00300000002607703209 -0.986140727996826172 1.35985481739044189 0.659595131874084473 -0.751546323299407959 -0.0105972522869706154
-3.47902584075927734 3.09681558609008789 3.30299258232116699 0.0500881075859069824 -0.797139406204223633 -0.601713895797729492
-3.1263725757598877 4.51998376846313477 1.82768011093139648 -0.931458771228790283 -0.206772655248641968 -0.299382150173187256
-2.69328522682189941 1.45524001121520996 1.65299618244171143 0.906483173370361328 -0.00923578441143035889 -0.42214086651802063
-5.49700021743774414 0.993450641632080078 0.35996699333190918 -0.985455691814422607 0.14540351927280426 0.0879482626914978027
-2.31415939331054688 2.12587308883666992 2.56955099105834961 0.650390863418579102 -0.758418560028076172 0.0423439294099807739
-1.65062546730041504 5.49700021743774414 0.522510766983032227 -0.983553588390350342 0.168794587254524231 0.0642707422375679016
-3.44328165054321289 3.98789811134338379 3.30299258232116699 -0.35654875636100769 0.662115812301635742 -0.659147679805755615
-5.49699926376342773 2.10380172729492188 3.64770674705505371 -0.910642504692077637 -0.14385850727558136 -0.387343525886535645
-0.00300000002607703209 4.56201028823852539 4.55158901214599609 0.719888925552368164 -0.61467289924621582 -0.322392970323562622
-1.50004017353057861 1.23514688014984131 2.77864408493041992 -0.738364517688751221 0.334995925426483154 -0.585316658020019531
-0.00300000002607703209 5.06765270233154297 4.34846115112304688 0.587356805801391602 -0.077649235725402832 -0.805594563484191895
-3.93121623992919922 2.59504008293151855 5.49700021743774414 -0.543274044990539551 0.23877406120300293 0.804885506629943848
-0.00300000002607703209 2.73128652572631836 0.0715363025665283203 0.883054912090301514 0.382616698741912842 0.271695524454116821
-1.89351916313171387 3.94144749641418457 5.49700021743774414 0.416144698858261108 0.31049385666847229 0.854644477367401123
-2.65806746482849121 1.87772417068481445 0.552378833293914795 0.536692202091217041 -0.679265379905700684 -0.500559628009796143
-2.29780769348144531 2.00359058380126953 2.75703835487365723 0.614396810531616211 -0.42085576057434082 -0.667380750179290771
-0.829796671867370605 2.21319127082824707 0.199934720993041992 -0.703009307384490967 0.663751602172851562 0.255365729331970215
-2.45693445205688477 2.89098191261291504 0.00300000002607703209 0.161252319812774658 -0.153062805533409119 -0.974971532821655273
-3.28570127487182617 5.49700021743774414 5.177215576171875 0.615328490734100342 0.655426144599914551 -0.437935471534729004
-0.00300000002607703209 2.16154766082763672 4.47170782089233398 0.712612330913543701 0.178367346525192261 0.678505182266235352
-5.49700021743774414 2.69058108329772949 5.37412595748901367 -0.517099559307098389 -0.625844120979309082 -0.583889663219451904
-2.02971339225769043 2.6077110767364502 0.826120913028717041 0.242234140634536743 -0.931006848812103271 0.273036420345306396
-3.85989880561828613 3.81844449043273926 4.38881683349609375 -0.847244501113891602 -0.437395006418228149 -0.301433920860290527
-2.24366235733032227 1.70432937145233154 2.92424869537353516 0.500613152980804443 -0.0517604798078536987 -0.864122331142425537
-4.23851346969604492 4.2036747932434082 0.621465802192687988 -0.798373699188232422 -0.559553861618041992 -0.222483515739440918
-0.00300000002607703209 3.11336255073547363 1.36653459072113037 0.770681619644165039 0.322711020708084106 0.549461066722869873
-4.17234420776367188 4.85337352752685547 0.00299952318891882896 -0.398377895355224609 -0.089021831750869751 -0.912891089916229248
-1.54944062232971191 3.66612625122070312 0.00299952318891882896 -0.117457278072834015 -0.274898380041122437 -0.954271793365478516
-5.49700021743774414 4.54340410232543945 2.91810321807861328 -0.682587146759033203 0.213311553001403809 0.698979973793029785
-3.17340731620788574 1.11214268207550049 0.00300000002607703209 0.607579708099365234 -0.36939471960067749 -0.703131914138793945
-2.14858746528625488 1.86358845233917236 2.94974589347839355 0.381047904491424561 -0.882844865322113037 0.274567723274230957
